<svg width="15" height="15" viewBox="0 0 15 15" fill="none" xmlns="http://www.w3.org/2000/svg">
<g id="Frame" clip-path="url(#clip0_20_79)">
<path id="Path 252" d="M5.73238 13.1888C5.68528 12.7869 5.52829 12.4059 5.27871 12.0876C5.02913 11.7693 4.69666 11.5263 4.31793 11.3851C4.47394 11.1422 4.56188 10.8618 4.57254 10.5732C4.58321 10.2846 4.51621 9.99841 4.37856 9.74462C4.24091 9.49083 4.03767 9.27876 3.79011 9.13061C3.54255 8.98245 3.25977 8.90366 2.97137 8.90248C2.68298 8.9013 2.39957 8.97776 2.1508 9.12387C1.90204 9.26999 1.69707 9.4804 1.55734 9.73304C1.41762 9.98569 1.34828 10.2713 1.35658 10.56C1.36488 10.8487 1.45052 11.1298 1.60453 11.374C1.21845 11.5113 0.878439 11.754 0.622951 12.0747C0.367462 12.3955 0.206694 12.7814 0.158831 13.1888L0.00308322 14.5087C-0.00425747 14.5704 0.00154542 14.6329 0.020109 14.6922C0.0386725 14.7515 0.0695746 14.8061 0.110776 14.8525C0.151978 14.899 0.202542 14.9361 0.259131 14.9615C0.315721 14.9869 0.37705 15.0001 0.439071 15H5.4532C5.51522 15.0001 5.57655 14.9869 5.63314 14.9615C5.68973 14.9361 5.74029 14.899 5.78149 14.8525C5.82269 14.8061 5.8536 14.7515 5.87216 14.6922C5.89072 14.6329 5.89653 14.5704 5.88919 14.5087L5.73238 13.1888ZM2.96653 9.78513C3.11127 9.78544 3.25266 9.82875 3.37282 9.90956C3.49298 9.99037 3.5865 10.1051 3.64155 10.2391C3.6966 10.3732 3.7107 10.5206 3.68208 10.6626C3.65346 10.8047 3.58339 10.9351 3.48075 11.0373C3.3781 11.1395 3.2475 11.2089 3.10545 11.2367C2.96341 11.2646 2.81631 11.2496 2.68277 11.1937C2.54923 11.1378 2.43525 11.0435 2.35525 10.9227C2.27525 10.8019 2.23283 10.66 2.23335 10.5151C2.23419 10.321 2.31184 10.1352 2.44928 9.99836C2.58672 9.86152 2.77273 9.78484 2.96653 9.78513ZM0.932802 14.1225L1.03081 13.2939C1.0688 12.9733 1.22286 12.6779 1.46382 12.4635C1.70478 12.2491 2.0159 12.1306 2.33824 12.1305H3.5535C3.87584 12.1306 4.18696 12.2491 4.42792 12.4635C4.66887 12.6779 4.82294 12.9733 4.86093 13.2939L4.95894 14.1225H0.932802Z" fill="#E5E5E5"/>
<path id="Path 253" d="M14.997 5.60267L14.8413 4.28278C14.7942 3.88087 14.6372 3.49979 14.3876 3.18153C14.138 2.86327 13.8055 2.62018 13.4268 2.47907C13.5828 2.23616 13.6708 1.95573 13.6814 1.66712C13.6921 1.37851 13.6251 1.09234 13.4874 0.838552C13.3498 0.584766 13.1465 0.372697 12.899 0.224543C12.6514 0.076389 12.3687 -0.00240344 12.0803 -0.00358753C11.7919 -0.00477161 11.5084 0.0716962 11.2597 0.217813C11.0109 0.363929 10.806 0.574321 10.6662 0.826969C10.5265 1.07962 10.4572 1.36523 10.4655 1.65392C10.4738 1.9426 10.5594 2.22375 10.7134 2.46793C10.3277 2.60501 9.98794 2.84734 9.73249 3.16756C9.47703 3.48778 9.31605 3.87314 9.26772 4.28013L9.11197 5.60002C9.10463 5.66169 9.11043 5.72422 9.12899 5.78348C9.14756 5.84275 9.17846 5.89739 9.21966 5.94382C9.26086 5.99024 9.31143 6.02739 9.36802 6.0528C9.42461 6.07822 9.48594 6.09133 9.54796 6.09127H14.5621C14.6241 6.09133 14.6854 6.07822 14.742 6.0528C14.7986 6.02739 14.8492 5.99024 14.8904 5.94382C14.9316 5.89739 14.9625 5.84275 14.981 5.78348C14.9996 5.72422 15.0054 5.66169 14.9981 5.60002L14.997 5.60267ZM12.0733 0.881188C12.2182 0.881085 12.3599 0.924073 12.4803 1.0047C12.6008 1.08533 12.6946 1.19996 12.75 1.33407C12.8053 1.46818 12.8196 1.61572 12.7911 1.75799C12.7626 1.90025 12.6925 2.03083 12.5898 2.13317C12.4871 2.23552 12.3563 2.30501 12.2141 2.33284C12.0719 2.36067 11.9247 2.34558 11.791 2.2895C11.6574 2.23341 11.5434 2.13885 11.4635 2.0178C11.3836 1.89675 11.3414 1.75467 11.3422 1.60957C11.3429 1.41577 11.4202 1.23013 11.5572 1.09324C11.6942 0.956348 11.8798 0.879345 12.0733 0.879066V0.881188ZM10.039 5.217L10.137 4.38835C10.175 4.0678 10.3291 3.77234 10.5701 3.55793C10.811 3.34351 11.1221 3.22504 11.4445 3.22496H12.6603C12.9826 3.22504 13.2937 3.34351 13.5347 3.55793C13.7756 3.77234 13.9297 4.0678 13.9677 4.38835L14.0652 5.217H10.039Z" fill="#E5E5E5"/>
<path id="Path 254" d="M1.43781 8.6674C1.45729 8.66744 1.47676 8.6662 1.49608 8.66369C1.5532 8.65611 1.60827 8.63733 1.65815 8.60843C1.70802 8.57953 1.75172 8.54107 1.78674 8.49526C1.82177 8.44944 1.84744 8.39716 1.86229 8.34141C1.87713 8.28565 1.88086 8.22752 1.87327 8.17032C1.74847 7.22892 1.85977 6.27122 2.19711 5.38368C2.53445 4.49614 3.0872 3.7067 3.80548 3.08665C4.52376 2.46659 5.38493 2.03544 6.31126 1.83211C7.23758 1.62879 8.19989 1.6597 9.1113 1.92204C9.22314 1.95419 9.34315 1.94053 9.44493 1.88407C9.54671 1.82761 9.62193 1.73298 9.65404 1.62098C9.68614 1.50898 9.6725 1.3888 9.61612 1.28688C9.55974 1.18495 9.46524 1.10963 9.3534 1.07748C9.03433 0.985873 8.70885 0.91831 8.37971 0.875357C7.37832 0.745509 6.36053 0.847927 5.40497 1.1747C4.4494 1.50147 3.58164 2.04385 2.86872 2.75993C2.15579 3.47602 1.6168 4.34664 1.29337 5.30454C0.969934 6.26243 0.870727 7.28197 1.00341 8.28438C1.0175 8.38981 1.06928 8.48656 1.14915 8.55669C1.22903 8.62683 1.33158 8.66559 1.43781 8.66581V8.6674Z" fill="#E5E5E5"/>
<path id="Path 255" d="M13.6734 6.91406H13.6696C13.612 6.91448 13.555 6.92627 13.5019 6.94877C13.4488 6.97126 13.4007 7.00401 13.3602 7.04515C13.3198 7.08629 13.2878 7.13502 13.2662 7.18853C13.2446 7.24205 13.2337 7.29931 13.2342 7.35704C13.2364 7.62308 13.2203 7.88896 13.186 8.15279C13.008 9.52707 12.337 10.7896 11.2981 11.705C10.2591 12.6204 8.92315 13.1261 7.53932 13.1279C7.39258 13.1279 7.24373 13.122 7.09486 13.1109C6.97881 13.1019 6.86394 13.1394 6.77552 13.2152C6.6871 13.291 6.63237 13.3989 6.62338 13.5151C6.61439 13.6313 6.65187 13.7464 6.72757 13.8349C6.80327 13.9235 6.911 13.9783 7.02705 13.9873C7.19905 14.0007 7.36998 14.0074 7.53986 14.0074C9.13666 14.0054 10.6782 13.4219 11.8771 12.3657C13.076 11.3094 13.8504 9.85262 14.0558 8.26685C14.0953 7.9638 14.1138 7.65839 14.1115 7.35279C14.1113 7.23647 14.0651 7.12497 13.983 7.04272C13.9009 6.96048 13.7895 6.9142 13.6734 6.91406Z" fill="#E5E5E5"/>
</g>
<defs>
<clipPath id="clip0_20_79">
<rect width="15" height="15" fill="white"/>
</clipPath>
</defs>
</svg>
