<svg width="15" height="20" viewBox="0 0 15 20" fill="none" xmlns="http://www.w3.org/2000/svg">
<g id="Frame" clip-path="url(#clip0_20_84)">
<path id="Path 256" d="M5.87719 3.51545H9.12248C9.20042 3.51545 9.2776 3.50029 9.34961 3.47086C9.42161 3.44142 9.48704 3.39827 9.54216 3.34387C9.59727 3.28948 9.64098 3.2249 9.67081 3.15383C9.70063 3.08276 9.71598 3.00658 9.71598 2.92966C9.71598 2.85273 9.70063 2.77656 9.67081 2.70549C9.64098 2.63442 9.59727 2.56984 9.54216 2.51544C9.48704 2.46105 9.42161 2.4179 9.34961 2.38846C9.2776 2.35902 9.20042 2.34387 9.12248 2.34387H5.87719C5.71978 2.34387 5.56883 2.40559 5.45753 2.51544C5.34623 2.6253 5.28369 2.7743 5.28369 2.92966C5.28369 3.08502 5.34623 3.23401 5.45753 3.34387C5.56883 3.45373 5.71978 3.51545 5.87719 3.51545Z" fill="#E5E5E5"/>
<path id="Path 257" d="M15 2.14839C14.9994 1.57879 14.7699 1.03269 14.3618 0.62992C13.9537 0.227149 13.4004 0.000606499 12.8233 0L2.17669 0C1.59958 0.000606499 1.04629 0.227149 0.638213 0.62992C0.230138 1.03269 0.000614485 1.57879 0 2.14839V17.8516C0.000614485 18.4212 0.230138 18.9673 0.638213 19.3701C1.04629 19.7729 1.59958 19.9994 2.17669 20H12.8233C13.4004 19.9994 13.9537 19.7729 14.3618 19.3701C14.7699 18.9673 14.9994 18.4212 15 17.8516V2.14839ZM2.17669 1.17157H12.8233C13.0856 1.17198 13.337 1.27505 13.5224 1.45817C13.7078 1.64129 13.812 1.88952 13.8122 2.14839V16.4845H1.187V2.14839C1.1872 1.88939 1.29154 1.64105 1.4771 1.4579C1.66266 1.27476 1.91427 1.17178 2.17669 1.17157ZM12.8233 18.8284H2.17669C1.91427 18.8282 1.66266 18.7252 1.4771 18.5421C1.29154 18.359 1.1872 18.1106 1.187 17.8516V17.6561H13.8122V17.8516C13.812 18.1105 13.7078 18.3587 13.5224 18.5418C13.337 18.725 13.0856 18.828 12.8233 18.8284Z" fill="#E5E5E5"/>
</g>
<defs>
<clipPath id="clip0_20_84">
<rect width="15" height="20" fill="white"/>
</clipPath>
</defs>
</svg>
