<svg width="15" height="11" viewBox="0 0 15 11" fill="none" xmlns="http://www.w3.org/2000/svg">
<g id="Frame" clip-path="url(#clip0_20_87)">
<path id="Path 262" d="M14.797 9.43144L13.6205 7.91437V1.54355C13.6201 1.13429 13.4504 0.741913 13.1485 0.452525C12.8466 0.163138 12.4372 0.000389458 12.0103 0H2.99241C2.56539 0.000259631 2.15592 0.16295 1.85392 0.452351C1.55192 0.741753 1.38207 1.13421 1.38167 1.54355V7.91388L0.205197 9.43144C0.0913524 9.57714 0.0220595 9.75034 0.00507637 9.93164C-0.0119068 10.1129 0.0240901 10.2952 0.109037 10.458C0.193984 10.6208 0.324528 10.7578 0.486054 10.8535C0.64758 10.9492 0.833712 10.9999 1.02361 11H13.975C14.1653 11.0006 14.352 10.9504 14.5141 10.8549C14.6763 10.7594 14.8074 10.6225 14.8928 10.4594C14.9782 10.2964 15.0145 10.1138 14.9976 9.93213C14.9806 9.75044 14.9112 9.57688 14.797 9.43095V9.43144ZM2.26044 1.54355C2.26058 1.3575 2.33774 1.1791 2.47498 1.04755C2.61222 0.915987 2.79832 0.842021 2.99241 0.841891H12.0083C12.2024 0.842021 12.3885 0.915987 12.5257 1.04755C12.6629 1.1791 12.7401 1.3575 12.7402 1.54355V7.63243H2.26044V1.54355ZM14.106 10.0806C14.0943 10.1043 14.0758 10.1243 14.0525 10.1381C14.0293 10.1518 14.0023 10.1588 13.975 10.1581H1.02361C0.996443 10.1582 0.969792 10.151 0.946644 10.1374C0.923496 10.1237 0.904765 10.1042 0.892552 10.0809C0.880338 10.0577 0.875124 10.0316 0.877493 10.0056C0.879862 9.9797 0.88972 9.9549 0.905964 9.93403L2.03947 8.47432H12.9587L14.0922 9.93403C14.109 9.95455 14.1193 9.97934 14.1218 10.0054C14.1242 10.0314 14.1187 10.0575 14.106 10.0806Z" fill="#E5E5E5"/>
<path id="Path 263" d="M8.70048 1.68384H6.29997C6.1835 1.68384 6.07181 1.72819 5.98946 1.80713C5.90711 1.88607 5.86084 1.99314 5.86084 2.10478C5.86084 2.21642 5.90711 2.3235 5.98946 2.40244C6.07181 2.48138 6.1835 2.52573 6.29997 2.52573H8.70048C8.81695 2.52573 8.92864 2.48138 9.011 2.40244C9.09335 2.3235 9.13961 2.21642 9.13961 2.10478C9.13961 1.99314 9.09335 1.88607 9.011 1.80713C8.92864 1.72819 8.81695 1.68384 8.70048 1.68384Z" fill="#E5E5E5"/>
</g>
<defs>
<clipPath id="clip0_20_87">
<rect width="15" height="11" fill="white"/>
</clipPath>
</defs>
</svg>
