<svg width="15" height="14" viewBox="0 0 15 14" fill="none" xmlns="http://www.w3.org/2000/svg">
<g id="Frame" clip-path="url(#clip0_20_90)">
<path id="Path 264" d="M13.9745 0H1.02553C0.753638 0.00031748 0.492968 0.112263 0.30071 0.311275C0.108452 0.510287 0.000306705 0.780115 0 1.06156L0 9.55164C0.000306705 9.83309 0.108452 10.1029 0.30071 10.3019C0.492968 10.5009 0.753638 10.6129 1.02553 10.6132H5.3542V11.8307L1.78918 13.1154C1.67915 13.1551 1.58889 13.2385 1.53826 13.3472C1.48763 13.4558 1.48076 13.5808 1.51918 13.6947C1.55759 13.8086 1.63814 13.902 1.74311 13.9545C1.84807 14.0069 1.96885 14.014 2.07888 13.9742L6.87454 12.2451C7.28025 12.0995 7.72149 12.0995 8.1272 12.2451L12.9205 13.9742C12.975 13.9939 13.0327 14.0023 13.0903 13.9989C13.1479 13.9955 13.2043 13.9804 13.2563 13.9545C13.3083 13.9285 13.3548 13.8922 13.3932 13.8476C13.4317 13.8031 13.4612 13.7511 13.4802 13.6947C13.4993 13.6383 13.5074 13.5786 13.5041 13.519C13.5008 13.4593 13.4862 13.401 13.4612 13.3472C13.4361 13.2934 13.401 13.2452 13.358 13.2054C13.3149 13.1657 13.2647 13.1351 13.2102 13.1154L9.6458 11.8307V10.6138H13.9745C14.2464 10.6135 14.507 10.5015 14.6993 10.3025C14.8915 10.1035 14.9997 9.83369 15 9.55224V1.06156C14.9997 0.780115 14.8915 0.510287 14.6993 0.311275C14.507 0.112263 14.2464 0.00031748 13.9745 0ZM8.76685 11.5152L8.41516 11.3887C7.82218 11.1758 7.17724 11.1758 6.58426 11.3887L6.23257 11.5152V10.6156H8.76685V11.5152ZM14.1211 9.55164C14.1211 9.59189 14.1056 9.63048 14.0781 9.65894C14.0506 9.68739 14.0133 9.70338 13.9745 9.70338H1.02553C0.986655 9.70338 0.94937 9.68739 0.921879 9.65894C0.894389 9.63048 0.878945 9.59189 0.878945 9.55164V1.06156C0.878945 1.02132 0.894389 0.982722 0.921879 0.954266C0.94937 0.92581 0.986655 0.909823 1.02553 0.909823H13.9745C14.0133 0.909823 14.0506 0.92581 14.0781 0.954266C14.1056 0.982722 14.1211 1.02132 14.1211 1.06156V9.55164Z" fill="#E5E5E5"/>
<path id="Path 265" d="M2.39049 3.50554L3.42066 2.43918C3.46144 2.39696 3.49379 2.34684 3.51587 2.29169C3.53794 2.23653 3.5493 2.17741 3.5493 2.11771C3.5493 2.05801 3.53794 1.99889 3.51587 1.94373C3.49379 1.88858 3.46144 1.83846 3.42066 1.79624C3.37988 1.75403 3.33146 1.72054 3.27818 1.69769C3.22489 1.67485 3.16778 1.66309 3.1101 1.66309C3.05243 1.66309 2.99532 1.67485 2.94203 1.69769C2.88875 1.72054 2.84033 1.75403 2.79955 1.79624L1.76938 2.8626C1.68694 2.94794 1.64062 3.06368 1.64062 3.18437C1.64063 3.30505 1.68694 3.4208 1.76938 3.50613C1.85182 3.59147 1.96364 3.63942 2.08023 3.63942C2.19682 3.63942 2.30863 3.59147 2.39107 3.50613L2.39049 3.50554Z" fill="#E5E5E5"/>
<path id="Path 266" d="M4.80141 2.15253L2.11069 4.93778C2.06987 4.98003 2.03749 5.0302 2.0154 5.0854C1.9933 5.14061 1.98193 5.19979 1.98193 5.25954C1.98193 5.3193 1.9933 5.37847 2.0154 5.43368C2.03749 5.48889 2.06987 5.53905 2.11069 5.58131C2.15151 5.62356 2.19997 5.65708 2.25331 5.67995C2.30664 5.70282 2.36381 5.71459 2.42154 5.71459C2.47927 5.71459 2.53643 5.70282 2.58977 5.67995C2.6431 5.65708 2.69156 5.62356 2.73238 5.58131L5.42194 2.79307C5.49501 2.70614 5.53347 2.59373 5.52953 2.47858C5.5256 2.36342 5.47956 2.25411 5.40074 2.17274C5.32191 2.09138 5.21618 2.04403 5.10493 2.04028C4.99367 2.03653 4.88518 2.07665 4.80141 2.15253Z" fill="#E5E5E5"/>
</g>
<defs>
<clipPath id="clip0_20_90">
<rect width="15" height="14" fill="white"/>
</clipPath>
</defs>
</svg>
