<svg width="15" height="20" viewBox="0 0 15 20" fill="none" xmlns="http://www.w3.org/2000/svg">
<g id="Frame" clip-path="url(#clip0_20_94)">
<g id="021-document">
<path id="Path 258" d="M14.3383 4.15103L10.6298 0.587632C10.2376 0.20956 9.71716 -0.000836085 9.17638 2.49717e-06H2.1187C1.55733 -0.000186101 1.01886 0.225974 0.621583 0.628789C0.22431 1.0316 0.000740802 1.57812 0 2.14826V17.8517C0.000739546 18.4213 0.223828 18.9673 0.620346 19.37C1.01686 19.7727 1.55445 19.9993 2.11521 20H12.8848C13.4456 19.9993 13.9831 19.7727 14.3797 19.37C14.7762 18.9673 14.9993 18.4213 15 17.8517V5.71165C14.9996 5.41945 14.9407 5.13039 14.8269 4.862C14.7132 4.59362 14.5469 4.35149 14.3383 4.15032V4.15103ZM13.2202 4.68756H10.3461C10.2952 4.68737 10.2465 4.66675 10.2105 4.63019C10.1745 4.59363 10.1541 4.54409 10.154 4.49239V1.74373L13.2202 4.68756ZM12.8848 18.8283H2.11521C1.86031 18.8279 1.61595 18.7249 1.43571 18.5419C1.25547 18.3588 1.15406 18.1106 1.15369 17.8517V2.14826C1.15406 1.88938 1.25547 1.64121 1.43571 1.45815C1.61595 1.2751 1.86031 1.17209 2.11521 1.17171H9.00028V4.49239C9.00083 4.85474 9.14281 5.20208 9.39509 5.4583C9.64736 5.71452 9.98936 5.85871 10.3461 5.85927H13.8463V17.8532C13.8456 18.1118 13.744 18.3596 13.5638 18.5424C13.3836 18.7251 13.1395 18.8279 12.8848 18.8283Z" fill="#E5E5E5"/>
<path id="Path 259" d="M11.6159 7.81237H3.1544C3.07696 7.80963 2.99977 7.82275 2.92743 7.85096C2.85509 7.87917 2.78909 7.92189 2.73335 7.97656C2.67761 8.03123 2.63327 8.09674 2.603 8.16919C2.57272 8.24163 2.55713 8.31952 2.55713 8.39822C2.55713 8.47692 2.57272 8.55482 2.603 8.62726C2.63327 8.6997 2.67761 8.76522 2.73335 8.81989C2.78909 8.87456 2.85509 8.91727 2.92743 8.94548C2.99977 8.97369 3.07696 8.98682 3.1544 8.98408H11.6159C11.6934 8.98682 11.7706 8.97369 11.8429 8.94548C11.9152 8.91727 11.9812 8.87456 12.037 8.81989C12.0927 8.76522 12.137 8.6997 12.1673 8.62726C12.1976 8.55482 12.2132 8.47692 12.2132 8.39822C12.2132 8.31952 12.1976 8.24163 12.1673 8.16919C12.137 8.09674 12.0927 8.03123 12.037 7.97656C11.9812 7.92189 11.9152 7.87917 11.8429 7.85096C11.7706 7.82275 11.6934 7.80963 11.6159 7.81237Z" fill="#E5E5E5"/>
<path id="Path 260" d="M11.6159 10.9379H3.1544C3.07696 10.9351 2.99977 10.9482 2.92743 10.9764C2.85509 11.0047 2.78909 11.0474 2.73335 11.102C2.67761 11.1567 2.63327 11.2222 2.603 11.2947C2.57272 11.3671 2.55713 11.445 2.55713 11.5237C2.55713 11.6024 2.57272 11.6803 2.603 11.7527C2.63327 11.8252 2.67761 11.8907 2.73335 11.9454C2.78909 12 2.85509 12.0428 2.92743 12.071C2.99977 12.0992 3.07696 12.1123 3.1544 12.1096H11.6159C11.6934 12.1123 11.7706 12.0992 11.8429 12.071C11.9152 12.0428 11.9812 12 12.037 11.9454C12.0927 11.8907 12.137 11.8252 12.1673 11.7527C12.1976 11.6803 12.2132 11.6024 12.2132 11.5237C12.2132 11.445 12.1976 11.3671 12.1673 11.2947C12.137 11.2222 12.0927 11.1567 12.037 11.102C11.9812 11.0474 11.9152 11.0047 11.8429 10.9764C11.7706 10.9482 11.6934 10.9351 11.6159 10.9379Z" fill="#E5E5E5"/>
<path id="Path 261" d="M5.95087 14.0627H3.15575C3.00624 14.068 2.86458 14.1321 2.76065 14.2414C2.65672 14.3507 2.59863 14.4967 2.59863 14.6486C2.59863 14.8005 2.65672 14.9465 2.76065 15.0558C2.86458 15.1651 3.00624 15.2292 3.15575 15.2345H5.95087C6.10038 15.2292 6.24203 15.1651 6.34596 15.0558C6.44989 14.9465 6.50797 14.8005 6.50797 14.6486C6.50797 14.4967 6.44989 14.3507 6.34596 14.2414C6.24203 14.1321 6.10038 14.068 5.95087 14.0627Z" fill="#E5E5E5"/>
</g>
</g>
<defs>
<clipPath id="clip0_20_94">
<rect width="15" height="20" fill="white"/>
</clipPath>
</defs>
</svg>
