<svg width="15" height="15" viewBox="0 0 15 15" fill="none" xmlns="http://www.w3.org/2000/svg">
<g id="Frame" clip-path="url(#clip0_20_100)">
<path id="Path 250" d="M13.9748 0H1.02518C0.753416 0.00041629 0.492898 0.10856 0.300729 0.300729C0.10856 0.492898 0.00041629 0.753416 0 1.02518L0 1.61123C0.000245147 1.86284 0.0928685 2.1056 0.260286 2.29342C0.427704 2.48125 0.65826 2.60106 0.908185 2.63012V10.957C0.908601 11.2287 1.01674 11.4893 1.20891 11.6814C1.40108 11.8736 1.6616 11.9817 1.93337 11.9822H5.19412L2.55666 14.2261C2.47259 14.303 2.4216 14.4094 2.41444 14.5231C2.40729 14.6367 2.44452 14.7487 2.51829 14.8355C2.59207 14.9223 2.69664 14.977 2.80998 14.9882C2.92331 14.9994 3.03658 14.9662 3.12592 14.8956L6.55194 11.9827H8.33578L11.8793 14.9003C11.9697 14.97 12.0837 15.0018 12.1971 14.989C12.3106 14.9762 12.4146 14.9198 12.4872 14.8317C12.5597 14.7435 12.5952 14.6307 12.586 14.5169C12.5769 14.4031 12.5238 14.2973 12.4381 14.2219L9.71773 11.9832H13.064C13.3358 11.9828 13.5963 11.8747 13.7885 11.6825C13.9806 11.4903 14.0888 11.2298 14.0892 10.958V2.63012C14.3396 2.60166 14.5708 2.4821 14.7387 2.29422C14.9067 2.10633 14.9997 1.86324 15 1.61123V1.02518C14.9996 0.753416 14.8914 0.492898 14.6993 0.300729C14.5071 0.10856 14.2466 0.00041629 13.9748 0ZM13.064 11.1039H1.93337C1.89459 11.1037 1.85744 11.0883 1.83001 11.0609C1.80259 11.0334 1.78713 10.9963 1.78699 10.9575V2.63694H13.213V10.957C13.213 10.9764 13.2091 10.9957 13.2016 11.0137C13.1941 11.0316 13.1831 11.0479 13.1692 11.0616C13.1554 11.0753 13.1389 11.0861 13.1209 11.0933C13.1028 11.1006 13.0835 11.1042 13.064 11.1039ZM14.1186 1.61175C14.1184 1.65053 14.103 1.68768 14.0755 1.71511C14.0481 1.74253 14.011 1.75799 13.9722 1.75813H1.02518C0.986404 1.75799 0.949252 1.74253 0.92183 1.71511C0.894409 1.68768 0.878942 1.65053 0.878804 1.61175V1.02518C0.878942 0.986404 0.894409 0.949252 0.92183 0.92183C0.949252 0.894409 0.986404 0.878942 1.02518 0.878804H13.9748C14.0136 0.878942 14.0507 0.894409 14.0782 0.92183C14.1056 0.949252 14.1211 0.986404 14.1212 1.02518L14.1186 1.61175Z" fill="#E5E5E5"/>
<path id="Path 251" d="M11.3987 8.44697H10.5766V5.56712C10.5766 5.45051 10.5303 5.33868 10.4478 5.25623C10.3654 5.17377 10.2535 5.12745 10.1369 5.12745H8.37933C8.26273 5.12745 8.15089 5.17377 8.06844 5.25623C7.98599 5.33868 7.93966 5.45051 7.93966 5.56712V8.44697H7.06086V4.19723C7.06086 4.08063 7.01454 3.96879 6.93209 3.88634C6.84964 3.80389 6.7378 3.75757 6.6212 3.75757H4.86359C4.74698 3.75757 4.63516 3.80389 4.5527 3.88634C4.47025 3.96879 4.42393 4.08063 4.42393 4.19723V8.44697H3.60231C3.54333 8.44493 3.48454 8.45479 3.42945 8.47595C3.37436 8.49712 3.3241 8.52915 3.28165 8.57016C3.23921 8.61116 3.20545 8.66029 3.1824 8.71462C3.15934 8.76894 3.14746 8.82735 3.14746 8.88637C3.14746 8.94539 3.15934 9.0038 3.1824 9.05812C3.20545 9.11245 3.23921 9.16158 3.28165 9.20259C3.3241 9.24359 3.37436 9.27562 3.42945 9.29679C3.48454 9.31795 3.54333 9.32781 3.60231 9.32577H11.3987C11.5127 9.32183 11.6206 9.27382 11.6998 9.19184C11.779 9.10987 11.8232 9.00035 11.8232 8.88637C11.8232 8.77239 11.779 8.66287 11.6998 8.5809C11.6206 8.49893 11.5127 8.45091 11.3987 8.44697ZM5.30326 8.44697V4.63847H6.18363V8.44697H5.30326ZM8.81847 8.44697V6.00573H9.69885V8.44644L8.81847 8.44697Z" fill="#E5E5E5"/>
</g>
<defs>
<clipPath id="clip0_20_100">
<rect width="15" height="15" fill="white"/>
</clipPath>
</defs>
</svg>
