<svg width="48" height="48" viewBox="0 0 48 48" fill="none" xmlns="http://www.w3.org/2000/svg">
<g id="team-sport 1" clip-path="url(#clip0_36_0)">
<path id="Vector" d="M24 0C10.7453 0 0 10.7453 0 24C0 37.2547 10.7453 48 24 48C37.2547 48 48 37.2547 48 24C47.9852 10.7516 37.2484 0.0148438 24 0ZM24.8566 6.91914L33.2 3.58398C34.1469 4.0125 35.0629 4.50625 35.9414 5.06172L35.9633 5.07539C36.8266 5.62227 37.6516 6.22734 38.4328 6.88633L38.5 6.94492C38.8504 7.24336 39.191 7.55234 39.5223 7.87109C39.5641 7.91211 39.6078 7.95117 39.6496 7.99297C39.9969 8.33203 40.3332 8.68164 40.6586 9.04141C40.6855 9.07188 40.7113 9.10391 40.7383 9.13438C41.0238 9.4543 41.2984 9.78555 41.5648 10.1223C41.6289 10.2023 41.693 10.2824 41.7551 10.3625C42.0441 10.7367 42.3238 11.1176 42.5879 11.5105L40.9246 18.5809L32.7414 21.309L24.8586 15.0016L24.8566 6.91914ZM6.24414 10.3672C6.30625 10.2871 6.36953 10.207 6.43359 10.1273C6.69688 9.79336 6.96914 9.46758 7.25039 9.14961C7.28086 9.11602 7.30898 9.08164 7.33906 9.04805C7.6625 8.6875 7.99727 8.33828 8.34414 8C8.38398 7.96094 8.42383 7.91992 8.46562 7.88398C8.79414 7.56719 9.13203 7.26016 9.4793 6.96328L9.55937 6.89609C10.3336 6.2418 11.1508 5.64062 12.0055 5.09609L12.0367 5.07617C12.9102 4.52187 13.8203 4.02891 14.7617 3.6L23.1434 6.91914V14.9992L15.2602 21.3055L7.07695 18.5824L5.41367 11.5121C5.68008 11.1199 5.95664 10.7398 6.24414 10.3672ZM5.28008 36.2762C5.04492 35.9176 4.81992 35.5523 4.60547 35.1801L4.55352 35.0902C4.34023 34.7199 4.13828 34.3434 3.94805 33.9609L3.94141 33.9488C3.54063 33.1441 3.18867 32.316 2.88789 31.4688V31.4609C2.7457 31.0609 2.61602 30.6512 2.49609 30.2391L2.45273 30.0871C2.34297 29.7 2.24336 29.3086 2.1543 28.9129C2.14648 28.8742 2.13672 28.8375 2.12891 28.7992C1.93242 27.9055 1.79141 27.0008 1.70625 26.0895L6.59023 20.2289L14.7168 22.9375L17.0754 32.3711L13.2 37.5273L5.28008 36.2762ZM29.3273 45.7543C28.9273 45.8535 28.5168 45.9391 28.1063 46.016C28.0488 46.0273 27.9902 46.0367 27.9328 46.0473C27.5832 46.1098 27.2297 46.1633 26.8754 46.207C26.7809 46.2191 26.6871 46.232 26.593 46.2434C26.2641 46.2816 25.932 46.3105 25.5992 46.3344C25.4945 46.3414 25.391 46.352 25.2863 46.3586C24.8609 46.3848 24.432 46.4 24 46.4C23.6043 46.4 23.2109 46.3895 22.8199 46.3688C22.7727 46.3688 22.7273 46.3609 22.6801 46.3574C22.332 46.3375 21.9855 46.3113 21.6398 46.2777L21.6 46.2703C20.8426 46.1883 20.0895 46.068 19.3441 45.9105L14.6121 38.5016L18.4266 33.4152H29.5734L33.4504 38.5352L29.3273 45.7543ZM45.877 28.8C45.8688 28.8383 45.8594 28.8754 45.8512 28.9137C45.7617 29.309 45.6621 29.7004 45.5527 30.0879L45.5098 30.2398C45.3895 30.652 45.2602 31.0602 45.1176 31.4617V31.4695C44.8168 32.3168 44.4652 33.1449 44.0641 33.9496L44.0574 33.9617C43.866 34.3445 43.6645 34.7211 43.452 35.091L43.4 35.1809C43.1867 35.5543 42.9621 35.9188 42.7266 36.2754L34.8336 37.5199L30.9312 32.368L33.2887 22.9367L41.4152 20.2281L46.2992 26.0887C46.2145 27.0004 46.0734 27.9059 45.877 28.8Z" fill="#75F880"/>
</g>
<defs>
<clipPath id="clip0_36_0">
<rect width="48" height="48" fill="white"/>
</clipPath>
</defs>
</svg>
