<svg width="23" height="18" viewBox="0 0 23 18" fill="none" xmlns="http://www.w3.org/2000/svg">
<g id="Frame">
<path id="Vector" d="M21.3571 1.125H1.63772C0.734152 1.125 0 1.63477 0 2.26055V15.7395C0 16.3652 0.734152 16.875 1.63772 16.875H21.3571C22.2607 16.875 23 16.3652 23 15.7395V2.26055C23 1.63477 22.2607 1.125 21.3571 1.125ZM6.95134 14.625H3.54241V7.10859H6.95647V14.625H6.95134ZM5.24687 6.08203C4.15335 6.08203 3.27031 5.47383 3.27031 4.72852C3.27031 3.9832 4.15335 3.375 5.24687 3.375C6.33527 3.375 7.22344 3.9832 7.22344 4.72852C7.22344 5.47734 6.3404 6.08203 5.24687 6.08203ZM19.7297 14.625H16.3208V10.9688C16.3208 10.0969 16.2951 8.97539 14.5496 8.97539C12.7732 8.97539 12.5011 9.92461 12.5011 10.9055V14.625H9.09219V7.10859H12.3625V8.13516H12.4087C12.8656 7.54453 13.9797 6.92227 15.6379 6.92227C19.0879 6.92227 19.7297 8.47969 19.7297 10.5047V14.625Z" fill="white"/>
</g>
</svg>
