<svg width="23" height="18" viewBox="0 0 23 18" fill="none" xmlns="http://www.w3.org/2000/svg">
<g id="Frame" clip-path="url(#clip0_1966_110)">
<path id="Vector" d="M11.5051 4.95684C8.23989 4.95684 5.60619 6.76035 5.60619 8.99629C5.60619 11.2322 8.23989 13.0357 11.5051 13.0357C14.7702 13.0357 17.4039 11.2322 17.4039 8.99629C17.4039 6.76035 14.7702 4.95684 11.5051 4.95684ZM11.5051 11.6225C9.39502 11.6225 7.67002 10.4447 7.67002 8.99629C7.67002 7.54785 9.38989 6.37012 11.5051 6.37012C13.6202 6.37012 15.3401 7.54785 15.3401 8.99629C15.3401 10.4447 13.6151 11.6225 11.5051 11.6225ZM19.0211 4.7916C19.0211 5.31543 18.4051 5.73379 17.6452 5.73379C16.8803 5.73379 16.2693 5.31191 16.2693 4.7916C16.2693 4.27129 16.8854 3.84941 17.6452 3.84941C18.4051 3.84941 19.0211 4.27129 19.0211 4.7916ZM22.928 5.74785C22.8408 4.48574 22.4198 3.36777 21.0696 2.44668C19.7245 1.52559 18.0919 1.2373 16.2488 1.17402C14.3493 1.1002 8.65574 1.1002 6.75619 1.17402C4.91824 1.23379 3.28565 1.52207 1.93543 2.44316C0.585211 3.36426 0.169364 4.48223 0.076953 5.74434C-0.0308593 7.04512 -0.0308593 10.9439 0.076953 12.2447C0.16423 13.5068 0.585211 14.6248 1.93543 15.5459C3.28565 16.467 4.91311 16.7553 6.75619 16.8186C8.65574 16.8924 14.3493 16.8924 16.2488 16.8186C18.0919 16.7588 19.7245 16.4705 21.0696 15.5459C22.4146 14.6248 22.8356 13.5068 22.928 12.2447C23.0359 10.9439 23.0359 7.04863 22.928 5.74785ZM20.474 13.6404C20.0736 14.3295 19.2984 14.8604 18.287 15.1381C16.7725 15.5494 13.1787 15.4545 11.5051 15.4545C9.8314 15.4545 6.23253 15.5459 4.72315 15.1381C3.7169 14.8639 2.94168 14.333 2.5361 13.6404C1.93543 12.6033 2.07405 10.1424 2.07405 8.99629C2.07405 7.8502 1.94057 5.38574 2.5361 4.35215C2.93655 3.66309 3.71177 3.13223 4.72315 2.85449C6.23766 2.44316 9.8314 2.53809 11.5051 2.53809C13.1787 2.53809 16.7776 2.44668 18.287 2.85449C19.2932 3.12871 20.0684 3.65957 20.474 4.35215C21.0747 5.38926 20.9361 7.8502 20.9361 8.99629C20.9361 10.1424 21.0747 12.6068 20.474 13.6404Z" fill="white"/>
</g>
<defs>
<clipPath id="clip0_1966_110">
<rect width="23" height="18" fill="white"/>
</clipPath>
</defs>
</svg>
