<svg width="23" height="18" viewBox="0 0 23 18" fill="none" xmlns="http://www.w3.org/2000/svg">
<g id="Frame">
<path id="Vector" d="M20.6358 5.33381C20.6504 5.4937 20.6504 5.65363 20.6504 5.81352C20.6504 10.6904 15.9074 16.3097 7.23858 16.3097C4.56788 16.3097 2.08694 15.7043 0 14.6536C0.379455 14.6879 0.744266 14.6993 1.13832 14.6993C3.34196 14.6993 5.37054 14.1168 6.99047 13.1232C4.91814 13.0889 3.18146 12.0267 2.5831 10.5648C2.875 10.599 3.16686 10.6219 3.47336 10.6219C3.89657 10.6219 4.31982 10.5762 4.71383 10.4963C2.55394 10.1536 0.933971 8.66884 0.933971 6.8757V6.83003C1.56148 7.10414 2.29124 7.27546 3.06466 7.29827C1.79499 6.63582 0.96317 5.50513 0.96317 4.22593C0.96317 3.54067 1.19663 2.9125 1.60528 2.36427C3.92572 4.60284 7.41368 6.06475 11.3248 6.22467C11.2519 5.95056 11.2081 5.66505 11.2081 5.37952C11.2081 3.3465 13.3096 1.69043 15.9219 1.69043C17.2791 1.69043 18.505 2.13586 19.366 2.8554C20.4314 2.69551 21.4529 2.38712 22.3578 1.96454C22.0075 2.82116 21.2632 3.5407 20.2855 3.99752C21.2341 3.91761 22.1535 3.71198 22.9999 3.42648C22.3579 4.15741 21.5552 4.8084 20.6358 5.33381Z" fill="white"/>
</g>
</svg>
