<svg width="23" height="18" viewBox="0 0 23 18" fill="none" xmlns="http://www.w3.org/2000/svg">
<g id="Frame">
<path id="Vector" d="M21.9479 4.36229C21.6971 3.53085 20.9582 2.87603 20.0199 2.6538C18.3193 2.25 11.4999 2.25 11.4999 2.25C11.4999 2.25 4.68057 2.25 2.97989 2.6538C2.04164 2.87606 1.30268 3.53085 1.05188 4.36229C0.596191 5.86934 0.596191 9.01364 0.596191 9.01364C0.596191 9.01364 0.596191 12.1579 1.05188 13.665C1.30268 14.4964 2.04164 15.124 2.97989 15.3462C4.68057 15.75 11.4999 15.75 11.4999 15.75C11.4999 15.75 18.3192 15.75 20.0199 15.3462C20.9582 15.124 21.6971 14.4964 21.9479 13.665C22.4036 12.1579 22.4036 9.01364 22.4036 9.01364C22.4036 9.01364 22.4036 5.86934 21.9479 4.36229ZM9.26959 11.8684V6.15885L14.9692 9.01371L9.26959 11.8684Z" fill="white"/>
</g>
</svg>
