<svg width="18" height="20" viewBox="0 0 18 20" fill="none" xmlns="http://www.w3.org/2000/svg">
<g id="Frame" clip-path="url(#clip0_1966_100)">
<path id="Vector" d="M11.9417 9.5C11.9417 10.11 11.4789 10.61 10.8926 10.61C10.3166 10.61 9.84343 10.11 9.84343 9.5C9.84343 8.89 10.3063 8.39 10.8926 8.39C11.4789 8.39 11.9417 8.89 11.9417 9.5ZM7.13829 8.39C6.552 8.39 6.08914 8.89 6.08914 9.5C6.08914 10.11 6.56229 10.61 7.13829 10.61C7.72457 10.61 8.18743 10.11 8.18743 9.5C8.19771 8.89 7.72457 8.39 7.13829 8.39ZM18 2.06V20C15.4087 17.7737 16.2374 18.5106 13.2274 15.79L13.7726 17.64H2.10857C0.946286 17.64 0 16.72 0 15.58V2.06C0 0.92 0.946286 0 2.10857 0H15.8914C17.0537 0 18 0.92 18 2.06ZM15.0686 11.54C15.0686 8.32 13.5874 5.71 13.5874 5.71C12.1063 4.63 10.6971 4.66 10.6971 4.66L10.5531 4.82C12.3017 5.34 13.1143 6.09 13.1143 6.09C10.671 4.78809 7.80091 4.78785 5.43086 5.8C5.05029 5.97 4.824 6.09 4.824 6.09C4.824 6.09 5.67771 5.3 7.52914 4.78L7.42629 4.66C7.42629 4.66 6.01714 4.63 4.536 5.71C4.536 5.71 3.05486 8.32 3.05486 11.54C3.05486 11.54 3.91886 12.99 6.192 13.06C6.192 13.06 6.57257 12.61 6.88114 12.23C5.57486 11.85 5.08114 11.05 5.08114 11.05C5.23246 11.153 5.48196 11.2864 5.50286 11.3C7.23897 12.2452 9.70505 12.5549 11.9211 11.65C12.2811 11.52 12.6823 11.33 13.104 11.06C13.104 11.06 12.5897 11.88 11.2423 12.25C11.5509 12.63 11.9211 13.06 11.9211 13.06C14.1943 12.99 15.0686 11.54 15.0686 11.54Z" fill="white"/>
</g>
<defs>
<clipPath id="clip0_1966_100">
<rect width="18" height="20" fill="white"/>
</clipPath>
</defs>
</svg>
