<svg width="119" height="260" viewBox="0 0 119 260" fill="none" xmlns="http://www.w3.org/2000/svg">
<path d="M41.2644 177.78L35.4454 198.865C33.8856 204.529 36.8194 210.462 42.2671 212.661C48.1908 215.045 54.9256 212.178 57.3133 206.256C57.5235 205.732 57.6956 205.194 57.8283 204.645L62.9515 183.385C64.2503 177.985 61.3968 172.448 56.2448 170.372C53.4896 169.262 50.406 169.291 47.6726 170.455C44.9392 171.618 42.78 173.819 41.6699 176.575C41.511 176.968 41.3756 177.371 41.2644 177.78Z" fill="white"/>
<path fill-rule="evenodd" clip-rule="evenodd" d="M37.1594 209.122C39.4013 212.066 42.89 213.793 46.5904 213.791H46.6068C52.0753 213.78 56.8277 210.032 58.1134 204.717L63.2365 183.458C64.4985 177.44 60.8072 171.494 54.8547 169.955C48.9022 168.417 42.7917 171.829 40.9796 177.704L35.1661 198.789C34.1802 202.355 34.9176 206.178 37.1594 209.122ZM35.7142 198.941L41.5442 177.862L41.5332 177.84C43.0463 172.008 49.0013 168.506 54.8342 170.019C60.6671 171.532 64.169 177.487 62.6559 183.32L57.5327 204.579C57.5054 204.695 57.4725 204.815 57.4396 204.93C55.7858 210.929 49.5818 214.452 43.5825 212.798C37.5831 211.145 34.0604 204.941 35.7142 198.941Z" fill="#E25AF0"/>
<path d="M34.2236 198.881L31.2593 212.267C31.344 213.11 32.0557 213.751 32.9031 213.746H78.6114C79.5192 213.746 80.2552 213.01 80.2552 212.102C80.2605 212.039 80.2605 211.975 80.2552 211.911C79.3155 203.817 72.4639 197.71 64.3159 197.703L59.6475 197.593C52.6066 201.084 42.3768 201.369 35.1934 198.185C35.0273 198.108 34.8371 198.101 34.6659 198.166C34.4946 198.231 34.3569 198.362 34.2838 198.53C34.2314 198.639 34.2105 198.761 34.2236 198.881Z" fill="#E25AF0"/>
<path d="M80.7432 122.089C79.8178 117.658 77.3111 113.716 73.6913 110.998L70.4037 109.218L51.7741 99.0536C52.1694 97.9555 52.5023 96.8359 52.7713 95.7003L39.9717 92.6264L14.0765 78.5117C12.5367 80.661 11.3356 83.0337 10.515 85.5471L5.0357 84.2266C1.4084 99.344 9.15065 114.166 22.3393 117.333C23.268 117.557 24.2108 117.718 25.1612 117.815L46.9523 131.168L28.2077 191.073L63.7628 191.939L79.8939 130.275L80.8254 126.675C81.0216 125.15 80.9939 123.605 80.7432 122.089Z" fill="white"/>
<path fill-rule="evenodd" clip-rule="evenodd" d="M27.7964 191.352L63.9597 192.24L80.1675 130.373L81.099 126.757V126.686C81.3018 125.142 81.2797 123.577 81.0332 122.039C80.0964 117.519 77.5348 113.499 73.8334 110.741L52.1244 98.9166C52.4878 97.8833 52.7969 96.8316 53.0504 95.766L53.1217 95.4811L40.07 92.3469L13.983 78.1336L13.8296 78.3418C12.3269 80.4417 11.1416 82.7513 10.3119 85.1965L4.79974 83.8759L4.73399 84.1609C2.93335 91.2937 3.77411 98.8372 7.10104 105.399C10.4105 111.727 15.7857 116.067 22.2513 117.617C23.1714 117.838 24.1048 117.999 25.0457 118.1L46.5849 131.294L27.7964 191.352ZM63.5163 191.643L28.5803 190.788L47.2044 131.255L47.2702 131.036L25.227 117.53H25.1612C24.2242 117.433 23.2944 117.276 22.3777 117.059C16.0546 115.541 10.8109 111.311 7.58363 105.13C4.36238 98.785 3.51696 91.4969 5.20014 84.5828L10.6794 85.8978L10.7616 85.6403C11.5464 83.2388 12.6839 80.9675 14.1369 78.9007L39.8074 92.8894L52.4098 95.9194C52.1522 96.9495 51.8454 97.9687 51.4893 98.9604L51.4016 99.1961L70.2723 109.481L73.5215 111.245C78.3429 114.811 80.9872 120.609 80.5186 126.587L79.5981 130.176L63.5163 191.643Z" fill="#E25AF0"/>
<path d="M6.96462 223.215L4.02771 244.885C3.23405 250.709 6.93849 256.201 12.6357 257.647C15.6082 258.4 18.7585 257.942 21.3932 256.373C24.028 254.804 25.9314 252.252 26.6846 249.28C26.821 248.739 26.9198 248.19 26.9805 247.636L29.2106 225.883C29.7778 220.356 26.2074 215.249 20.8218 213.883C17.9429 213.151 14.891 213.593 12.3382 215.112C9.78543 216.631 7.94103 219.102 7.21119 221.982C7.10748 222.388 7.02518 222.8 6.96462 223.215Z" fill="white"/>
<path fill-rule="evenodd" clip-rule="evenodd" d="M6.55184 254.232C8.80408 256.81 12.0618 258.287 15.485 258.282L15.4795 258.304C21.5587 258.305 26.6526 253.705 27.2709 247.658L29.501 225.905C29.9639 219.765 25.5115 214.349 19.3982 213.615C13.2849 212.882 7.67738 217.09 6.67425 223.165L3.73735 244.836C3.27321 248.227 4.29959 251.654 6.55184 254.232ZM4.32381 244.885L7.26619 223.215C8.0051 217.256 13.4206 213.014 19.3829 213.724C25.3453 214.435 29.6129 219.83 28.9313 225.795L26.7013 247.548C26.6958 247.592 26.6885 247.636 26.6812 247.68C26.6666 247.767 26.6519 247.855 26.6519 247.943C25.6885 253.996 20.0646 258.169 13.992 257.338C7.91949 256.506 3.62455 250.974 4.32381 244.885Z" fill="#E25AF0"/>
<path d="M3.28798 244.085L1.36475 257.482C1.44418 258.33 2.15738 258.976 3.00854 258.972L47.5498 259.378C48.4576 259.378 49.1935 258.642 49.1935 257.734C49.1935 257.668 49.1935 257.608 49.1935 257.542C48.3341 249.437 41.5359 243.264 33.3858 243.187L26.7229 243.121C19.6458 246.543 11.4132 246.639 4.25782 243.384C3.91132 243.225 3.50173 243.377 3.34277 243.724C3.29383 243.837 3.27496 243.962 3.28798 244.085Z" fill="#E25AF0"/>
<path d="M43.6701 163.419C41.7618 171.163 34.2388 176.153 26.3626 174.899C18.4864 173.646 12.884 166.567 13.4737 158.614C13.5493 157.516 13.744 156.43 14.0545 155.375C16.1905 148.013 23.4332 143.357 31.0179 144.471C38.6026 145.584 44.2011 152.126 44.1304 159.792C44.1214 161.015 43.9669 162.232 43.6701 163.419Z" fill="white"/>
<path fill-rule="evenodd" clip-rule="evenodd" d="M17.6991 170.72C20.628 173.666 24.6074 175.326 28.7611 175.336L28.7501 175.309C35.9242 175.303 42.1791 170.429 43.9388 163.474C44.2405 162.28 44.3987 161.055 44.41 159.825V159.77C44.3598 151.402 37.7341 144.556 29.3729 144.232C21.0118 143.908 13.8759 150.221 13.178 158.559V158.608C13.1451 158.948 13.1451 159.293 13.1451 159.633C13.132 163.786 14.7702 167.775 17.6991 170.72ZM26.4326 174.558C18.7335 173.342 13.2352 166.451 13.7586 158.674L13.764 158.663C14.3425 150.573 21.2255 144.394 29.3311 144.69C37.4367 144.985 43.8518 151.648 43.8399 159.759V159.808C43.8287 161.002 43.6761 162.19 43.3851 163.348L43.6701 163.419L43.3851 163.353C41.4862 170.913 34.1318 175.774 26.4326 174.558Z" fill="#E25AF0"/>
<path d="M50.9742 92.5881L28.509 86.8786C27.2511 86.5672 25.9771 87.3276 25.6543 88.5827L25.6214 88.7416V88.8621L16.3614 86.6375C14.082 96.1332 16.2902 105.514 21.512 111.963L13.7971 155.271L13.441 157.266L13.2053 158.57L0.334473 230.338L34.3719 238.978L43.9661 163.49L44.4319 159.808L49.8783 117.398L52.7001 95.3935L52.7275 95.1798C52.8839 93.9964 52.1307 92.8831 50.9742 92.5881Z" fill="white"/>
<path fill-rule="evenodd" clip-rule="evenodd" d="M0 230.557L34.6182 239.324L44.7275 159.896V159.863V159.83L52.9958 95.4428V95.2291C53.1674 93.9045 52.323 92.6603 51.0287 92.3305L28.5636 86.6211C27.1492 86.2648 25.7132 87.12 25.3527 88.5334L16.1037 86.3142L16.0379 86.5937C13.8243 95.7934 15.742 105.305 21.161 112.067L13.49 155.227L0 230.557ZM34.0981 238.595L0.646978 230.102L13.4685 158.652L21.7916 111.881L21.7039 111.777C16.389 105.218 14.4712 95.9743 16.5424 86.9882L25.8244 89.2183L25.8956 88.7964L25.9285 88.6539C26.0616 88.1246 26.3998 87.67 26.8686 87.3904C27.3373 87.1108 27.898 87.0292 28.427 87.1635L50.8921 92.8675C51.9002 93.1247 52.5583 94.0931 52.4264 95.125L44.1307 159.781V159.814L43.6704 163.441V163.49L34.0981 238.595Z" fill="#E25AF0"/>
<path d="M35.572 61.6574C40.1179 61.6574 44.216 64.3961 45.9551 68.5961C47.6943 72.7961 46.7318 77.6303 43.5166 80.8439C40.3014 84.0575 35.4668 85.0176 31.2676 83.2765C27.0684 81.5353 24.3318 77.4358 24.334 72.89C24.337 66.6855 29.3676 61.6574 35.572 61.6574Z" fill="white"/>
<path fill-rule="evenodd" clip-rule="evenodd" d="M25.0679 77.693C26.946 81.7987 31.0516 84.4266 35.5664 84.4129C40.8695 84.3969 45.4748 80.7586 46.7177 75.6032C47.9605 70.4479 45.5191 65.1107 40.8059 62.6799C36.0928 60.2491 30.3287 61.3543 26.8489 65.3559C23.8863 68.7628 23.1898 73.5874 25.0679 77.693ZM25.7812 77.8282C23.7923 73.864 24.389 69.0919 27.2926 65.7395C31.2473 61.1735 38.151 60.6687 42.7278 64.6107C46.0883 67.5051 47.3728 72.1396 45.9818 76.351C44.5909 80.5623 40.7987 83.52 36.3754 83.8434C31.9521 84.1669 27.77 81.7923 25.7812 77.8282Z" fill="#E25AF0"/>
<path d="M26.7939 65.8655L48.3769 40.8744L65.3627 55.5589L43.7798 80.55" fill="white"/>
<path d="M44.0263 80.7528L43.5825 80.3692L64.9517 55.6028L48.3878 41.3018L27.0185 66.0682L26.5747 65.6847L48.344 40.4799L65.7955 55.548L44.0263 80.7528Z" fill="#E25AF0"/>
<path d="M19.0134 33.0828C25.22 33.0828 30.2515 38.1143 30.2515 44.3209C30.2515 50.5275 25.22 55.5589 19.0134 55.5589C12.8068 55.5589 7.77539 50.5275 7.77539 44.3209C7.77539 38.1143 12.8068 33.0828 19.0134 33.0828Z" fill="#75F880"/>
<path fill-rule="evenodd" clip-rule="evenodd" d="M7.72053 46.3339C8.69279 51.8211 13.4574 55.8229 19.0301 55.8329C23.1571 55.8402 26.972 53.6368 29.0278 50.0583C31.0837 46.4798 31.0656 42.0743 28.9805 38.5128C26.1649 33.7037 20.3079 31.6034 15.0779 33.5274C9.84787 35.4514 6.74828 40.8467 7.72053 46.3339ZM8.41469 41.5089C9.69049 36.7134 14.0294 33.3738 18.9916 33.3677C22.8979 33.363 26.5114 35.438 28.4763 38.8142C30.9723 43.103 30.2749 48.5337 26.7763 52.0527C23.2776 55.5717 17.851 56.3006 13.5478 53.8296C9.24462 51.3585 7.13889 46.3043 8.41469 41.5089Z" fill="#75F880"/>
<path d="M9.08496 49.581L28.52 38.2991L45.1004 66.8518L25.6653 78.1391L9.08496 49.581Z" fill="#75F880"/>
<path fill-rule="evenodd" clip-rule="evenodd" d="M8.68506 49.5207L25.5613 78.561L45.5005 66.9832L28.6242 37.943L8.68506 49.5207ZM25.7749 77.7556L9.48491 49.707L28.4104 38.7484L44.7004 66.797L25.7749 77.7556Z" fill="#75F880"/>
<path d="M77.4451 40.0306C76.9699 39.4741 76.2919 39.1309 75.5622 39.0774C74.8324 39.0239 74.1116 39.2645 73.5603 39.7457L67.6207 44.8743C67.4512 44.3294 67.2406 43.7982 66.9906 43.2853L72.3932 37.1649C72.8796 36.6192 73.1278 35.9018 73.0825 35.1722C73.0372 34.4427 72.7023 33.7614 72.1521 33.2801C71.6069 32.7913 70.8887 32.5411 70.1578 32.5854C69.4269 32.6297 68.7441 32.9647 68.2618 33.5157L63.3852 39.0388C62.9125 38.7043 62.4142 38.4075 61.8949 38.1512L65.9496 31.4281C66.4585 30.5844 66.4787 29.5332 66.0025 28.6706C65.5263 27.8079 64.6261 27.2649 63.6409 27.246C62.6558 27.227 61.7354 27.7351 61.2264 28.5788L56.1471 37.0005C50.497 37.3795 46.0126 41.905 45.6851 47.5582C45.3575 53.2115 49.2894 58.2246 54.8579 59.2535C60.4264 60.2824 65.89 57.0054 67.6043 51.6083C68.1244 51.5306 68.6123 51.3085 69.0125 50.9673L77.1712 43.9154C77.7276 43.4402 78.0708 42.7622 78.1243 42.0324C78.1779 41.3027 77.9372 40.5819 77.4561 40.0306H77.4451Z" fill="white"/>
<path fill-rule="evenodd" clip-rule="evenodd" d="M55.7305 59.6848C56.1195 59.7451 56.514 59.7451 56.9085 59.7451H56.914C61.8673 59.7406 66.2618 56.5666 67.8233 51.8659C68.3306 51.7637 68.8026 51.5315 69.1931 51.1919L77.3573 44.1455C78.5988 43.0358 78.7215 41.1357 77.6332 39.8754C76.5448 38.6151 74.6471 38.4598 73.3683 39.5265L67.7575 44.3702C67.6363 44.0192 67.4955 43.6753 67.3356 43.3401L72.6122 37.3676C73.6826 36.0997 73.5438 34.2088 72.2997 33.1108C71.0556 32.0127 69.1622 32.1098 68.037 33.3294L63.3303 38.6553C62.998 38.4309 62.6542 38.2242 62.3002 38.0361L66.1905 31.5815C66.9764 30.1467 66.4912 28.3473 65.0904 27.5021C63.6897 26.6569 61.8716 27.0666 60.9687 28.4309L55.9661 36.7266C49.926 37.0772 45.1892 42.0457 45.1271 48.0957C45.065 54.1456 49.6988 59.2103 55.7305 59.6848ZM61.4673 28.7323C61.9152 27.992 62.717 27.5391 63.5823 27.5378L63.5878 27.5761C64.0338 27.5808 64.4705 27.7037 64.8535 27.9323C65.4139 28.27 65.8171 28.8166 65.9744 29.4517C66.1316 30.0868 66.03 30.7584 65.6918 31.3185L61.4728 38.3156L61.7577 38.4525C62.2637 38.7046 62.7492 38.9959 63.2097 39.3238L63.4234 39.4717L68.4753 33.7568C69.3832 32.7355 70.9471 32.6435 71.9684 33.5513C72.9897 34.4592 73.0817 36.023 72.1738 37.0444L66.6398 43.3127L66.7219 43.488C66.9674 43.9859 67.1726 44.5026 67.3356 45.0332L67.4726 45.4606L73.7464 40.0361C74.7776 39.1474 76.3334 39.2601 77.2258 40.2881C78.1144 41.3193 78.0017 42.8751 76.9737 43.7675L68.8096 50.8138C68.4519 51.1121 68.0166 51.3021 67.5548 51.3618H67.374L67.3192 51.5371C65.6491 56.8066 60.3157 60.0073 54.88 59.0021C49.4443 57.9969 45.6083 53.1006 45.9331 47.5823C46.2578 42.064 50.6418 37.6515 56.1579 37.2909H56.3113L61.4673 28.7323Z" fill="#E25AF0"/>
<path d="M58.4923 29.9706C59.1246 30.3413 59.582 30.95 59.7622 31.6605C59.9424 32.371 59.8304 33.124 59.4512 33.7513L53.928 43.0168C53.5564 43.6482 52.9473 44.1044 52.2369 44.2836C51.5265 44.4627 50.7739 44.3499 50.1473 43.9702C49.5159 43.5986 49.0597 42.9895 48.8805 42.2791C48.7014 41.5687 48.8143 40.8161 49.1939 40.1895L54.7116 30.9295C55.0823 30.2972 55.691 29.8398 56.4014 29.6596C57.1119 29.4794 57.865 29.5914 58.4923 29.9706Z" fill="white"/>
<path fill-rule="evenodd" clip-rule="evenodd" d="M50.0044 44.2277C50.4753 44.5072 51.0128 44.6548 51.5605 44.6551C52.6353 44.6549 53.6313 44.0914 54.1851 43.1702L59.7027 33.9047C60.3163 32.9669 60.3666 31.7681 59.8335 30.7823C59.3005 29.7964 58.27 29.1819 57.1492 29.1818C56.0285 29.1816 54.9978 29.7958 54.4645 30.7815L48.9414 40.047C48.0847 41.4956 48.5598 43.3642 50.0044 44.2277ZM53.6813 42.8689C52.9839 44.0352 51.4744 44.4175 50.306 43.7236C49.7438 43.3907 49.3371 42.8477 49.1757 42.2145C49.0144 41.5813 49.1115 40.9099 49.4458 40.3484L54.9634 31.0829C54.974 31.0659 54.9839 31.0489 54.9935 31.0322C55.0086 31.0059 55.0234 30.9803 55.0401 30.9569C55.788 29.851 57.2801 29.5412 58.4064 30.2579C59.5326 30.9747 59.8839 32.4576 59.1989 33.6034L53.6813 42.8689Z" fill="#E25AF0"/>
<path d="M52.7438 95.6838L4.9917 84.2156C8.62447 69.0982 22.2625 59.4108 35.4456 62.5779C48.6288 65.7449 56.3766 80.5719 52.7438 95.6838Z" fill="#75F880"/>
<path fill-rule="evenodd" clip-rule="evenodd" d="M4.64111 84.4293L52.9631 96.04L53.0288 95.7551C54.8299 88.6222 53.9892 81.0785 50.6617 74.5173C47.3522 68.1887 41.9716 63.8491 35.5115 62.2985C22.1913 59.0985 8.37252 68.8955 4.71234 84.1444L4.64111 84.4293ZM52.5244 95.3222L5.34762 83.9855C9.04067 69.2078 22.454 59.7451 35.3742 62.8519C41.6699 64.3641 46.9136 68.5942 50.1409 74.7748C53.3621 81.12 54.2076 88.4081 52.5244 95.3222Z" fill="#75F880"/>
<path d="M52.3928 83.8869L10.668 73.8598L12.3118 44.0688C12.5089 41.7199 13.3153 39.463 14.6514 37.5211C16.8431 34.3759 20.1746 32.6609 23.3306 33.4225L59.5598 42.1237C62.7158 42.8853 64.8911 45.9099 65.4336 49.7235C65.7399 52.0592 65.434 54.4345 64.5459 56.6164L52.3928 83.8869Z" fill="#75F880"/>
<path fill-rule="evenodd" clip-rule="evenodd" d="M10.3726 74.0899L52.5632 84.2266L64.8204 56.726C65.7248 54.4965 66.0362 52.0708 65.7244 49.6851C65.1436 45.614 62.8094 42.6113 59.6315 41.8442L23.4023 33.1431C20.2243 32.376 16.7779 33.9924 14.4108 37.3567C13.0452 39.3451 12.2201 41.6543 12.0163 44.0579L10.3726 74.0899ZM52.2287 83.5472L10.975 73.6351L12.6024 44.1017C12.7943 41.8026 13.5818 39.5931 14.8872 37.6909C17.1173 34.5294 20.3282 33.0006 23.2651 33.7075L59.4942 42.4141C62.4366 43.1154 64.6009 45.9318 65.1489 49.7673C65.4458 52.0491 65.1476 54.3689 64.2831 56.5014L52.2287 83.5472Z" fill="#75F880"/>
<path d="M21.0355 32.8801L61.796 42.6935C67.5067 44.0704 71.0214 49.8145 69.6478 55.526L69.3081 56.9342C67.9312 62.645 62.1871 66.1597 56.4756 64.7861L15.7151 55C10.005 53.6258 6.48986 47.8832 7.86322 42.173L8.20294 40.7593C9.57978 35.0486 15.3239 31.5339 21.0355 32.9075V32.8801Z" fill="#75F880"/>
<path fill-rule="evenodd" clip-rule="evenodd" d="M56.437 65.06C57.2803 65.2639 58.1448 65.3669 59.0123 65.3669V65.3449C64.0583 65.3273 68.4399 61.8663 69.6257 56.9616L69.9599 55.548C71.3408 49.687 67.7343 43.8098 61.8835 42.3867L21.1065 32.5897C15.2383 31.195 9.3462 34.8047 7.92332 40.6662L7.5836 42.0798C6.18894 47.9481 9.79863 53.8402 15.6601 55.263L56.437 65.06ZM8.49328 40.8032C9.61582 36.1559 13.7723 32.88 18.5533 32.8746L18.5807 32.8472C19.3944 32.8484 20.2053 32.944 20.997 33.1322L61.774 42.9291C67.3292 44.2683 70.7498 49.8541 69.4176 55.411L69.0779 56.8192C68.4434 59.4925 66.7714 61.8035 64.4309 63.2426C62.0903 64.6817 59.2734 65.1306 56.6015 64.4902L15.8246 54.6932C13.1513 54.0587 10.8402 52.3868 9.40112 50.0462C7.96204 47.7056 7.51318 44.8887 8.15356 42.2168L8.49328 40.8032Z" fill="#75F880"/>
<path d="M36.8096 27.3351L46.8093 30.4309L44.4093 38.1676C43.9994 39.5002 43.0747 40.6141 41.8403 41.2622C40.6058 41.9102 39.1638 42.0389 37.8342 41.6196C36.5018 41.2098 35.3882 40.2848 34.741 39.0501C34.0938 37.8154 33.9667 36.3733 34.3877 35.0444L36.8096 27.3351Z" fill="white"/>
<path fill-rule="evenodd" clip-rule="evenodd" d="M37.7523 41.899C38.2845 42.0644 38.8388 42.1475 39.3961 42.1456C41.8093 42.1403 43.9415 40.5733 44.6671 38.2717L47.1493 30.2555L36.5907 26.968L34.1085 34.9842C33.2095 37.8995 34.8393 40.9924 37.7523 41.899ZM41.7022 40.9982C40.5413 41.609 39.1848 41.732 37.9329 41.3401C36.6805 40.954 35.6333 40.0851 35.0226 38.9254C34.4119 37.7658 34.288 36.4107 34.6782 35.1595L36.985 27.7022L46.4258 30.6281L44.119 38.0854C43.7329 39.3392 42.8632 40.3874 41.7022 40.9982Z" fill="#E25AF0"/>
<path d="M41.8834 3.73572C48.1069 3.73571 53.1538 8.77765 53.1598 15.0012V21.7736C53.1613 24.7652 51.9739 27.6348 49.859 29.7507C47.7441 31.8666 44.8751 33.0554 41.8834 33.0554C35.6526 33.0554 30.6016 28.0044 30.6016 21.7736V15.0012C30.6106 8.77677 35.659 3.73571 41.8834 3.73572V3.73572Z" fill="white"/>
<path fill-rule="evenodd" clip-rule="evenodd" d="M30.311 21.79C30.3171 28.1787 35.4946 33.3562 41.8833 33.3623C48.2784 33.3562 53.4586 28.1687 53.4556 21.7736V15.0012C53.4556 8.60996 48.2745 3.42888 41.8833 3.42888C35.4921 3.42888 30.311 8.60996 30.311 15.0012V21.79ZM30.8976 14.9902C30.9187 8.93601 35.8294 4.0376 41.8836 4.0316L41.911 4.04256C47.9545 4.0636 52.8485 8.95763 52.8696 15.0012V21.7626C52.8696 27.83 47.951 32.7486 41.8836 32.7486C35.8162 32.7486 30.8976 27.83 30.8976 21.7626V14.9902Z" fill="#E25AF0"/>
<path d="M53.0996 11.2698C53.1011 7.46621 51.1831 3.91875 47.9998 1.83705C44.8165 -0.24465 40.7977 -0.579471 37.3138 0.946759C37.1863 0.972212 37.0628 1.0146 36.9466 1.07278L23.6593 7.80136C19.5589 9.8558 16.8564 13.9316 16.5598 18.5083C16.2633 23.085 18.4173 27.4754 22.2183 30.0418C28.9444 34.5829 38.0779 32.8146 42.6232 26.0913C42.8716 25.726 43.1017 25.3479 43.3136 24.957L44.8259 22.2174V22.1352C49.715 20.7885 53.1016 16.341 53.0996 11.2698Z" fill="#E25AF0"/>
<path d="M48.0749 16.8477V19.9325C48.0822 20.5186 47.8545 21.0831 47.4427 21.5001C47.0309 21.917 46.4692 22.1517 45.8832 22.1517C45.2972 22.159 44.7326 21.9313 44.3157 21.5195C43.8987 21.1077 43.664 20.546 43.6641 19.9599V16.8532C43.664 16.2671 43.8987 15.7055 44.3157 15.2936C44.7326 14.8818 45.2972 14.6541 45.8832 14.6615C47.0915 14.6615 48.0719 15.6394 48.0749 16.8477Z" fill="white"/>
<path fill-rule="evenodd" clip-rule="evenodd" d="M43.3462 19.9544C43.3462 21.3413 44.4689 22.4664 45.8557 22.4694C46.5256 22.4665 47.167 22.1976 47.6386 21.7219C48.1103 21.2461 48.3736 20.6025 48.3707 19.9325V16.8477C48.308 15.5058 47.2018 14.45 45.8584 14.45C44.5151 14.45 43.4089 15.5058 43.3462 16.8477V19.9544ZM43.9327 16.8477C43.9327 15.7855 44.7938 14.9245 45.856 14.9245C46.9126 14.9335 47.7653 15.791 47.7682 16.8477V19.9599C47.6633 20.9401 46.8362 21.6833 45.8505 21.6833C44.8648 21.6833 44.0377 20.9401 43.9327 19.9599V16.8477Z" fill="#E25AF0"/>
<path d="M117.612 49.2522C117.137 48.6942 116.458 48.3499 115.727 48.2963C114.996 48.2428 114.274 48.4845 113.722 48.9673L107.783 54.1014C107.615 53.5559 107.404 53.0246 107.152 52.5124L112.555 46.3921C113.563 45.2512 113.455 43.5095 112.314 42.5018C111.173 41.4941 109.431 41.602 108.424 42.7428L103.547 48.266C103.072 47.934 102.574 47.6355 102.057 47.3728L106.111 40.6498C106.898 39.344 106.477 37.6476 105.172 36.8608C103.866 36.074 102.17 36.4947 101.383 37.8005L96.3089 46.2277C93.3083 46.4233 90.5123 47.8173 88.5503 50.0961L66.9454 75.0871C63.1976 79.8037 63.8379 86.637 68.3967 90.5751C72.9555 94.5133 79.8092 94.154 83.9312 89.7607L105.3 64.9998L105.443 64.8354L105.498 64.7696C106.489 63.617 107.234 62.2747 107.689 60.8245C108.208 60.7478 108.695 60.5255 109.092 60.1835L117.251 53.1316C117.81 52.657 118.155 51.9783 118.21 51.2472C118.264 50.516 118.023 49.7935 117.541 49.2413L117.612 49.2522Z" fill="white"/>
<path fill-rule="evenodd" clip-rule="evenodd" d="M65.4216 87.2355C67.365 91.1594 71.3611 93.6462 75.7399 93.6565C78.8632 93.6699 81.857 92.4095 84.0301 90.1662L105.597 65.1915L105.69 65.0819L106.002 64.7148C106.891 63.6345 107.573 62.3992 108.013 61.0711C108.521 60.9656 108.994 60.7338 109.388 60.3971L117.552 53.3453C118.374 52.6298 118.751 51.5306 118.542 50.4616C118.333 49.3927 117.569 48.5165 116.539 48.1631C115.509 47.8096 114.368 48.0327 113.547 48.7482L107.936 53.5919C107.814 53.2394 107.673 52.8937 107.514 52.5563L112.791 46.5838C113.906 45.3219 113.787 43.395 112.525 42.2798C111.263 41.1647 109.336 41.2837 108.221 42.5456L103.509 47.8769C103.178 47.6506 102.834 47.4439 102.479 47.2578L106.369 40.7977C106.38 40.7839 106.389 40.7692 106.397 40.7539C107.25 39.3028 106.765 37.4347 105.314 36.5814C103.863 35.728 101.995 36.2125 101.142 37.6635L96.1394 45.9592C93.2166 46.1907 90.4924 47.5293 88.5232 49.7016L66.7539 74.9063L66.5676 75.1365C63.922 78.6258 63.4781 83.3115 65.4216 87.2355ZM67.1974 75.2734L67.2851 75.1639L88.5831 50.507L88.7694 50.2878C89.1869 49.8073 89.6432 49.362 90.1338 48.9564C91.8916 47.5157 94.0572 46.6629 96.3254 46.5181H96.4788L101.635 37.9594L101.701 37.8553C102.433 36.7069 103.958 36.3696 105.106 37.1019C106.254 37.8342 106.592 39.3589 105.859 40.5073L101.64 47.5044L101.925 47.6468C102.432 47.895 102.918 48.1845 103.377 48.5125L103.591 48.666L108.643 42.9456C109.551 41.9258 111.113 41.835 112.133 42.7428C113.153 43.6507 113.244 45.2134 112.336 46.2332L106.802 52.496L106.889 52.6713C107.134 53.1715 107.339 53.69 107.503 54.222L107.64 54.6494L113.914 49.2249C114.409 48.7966 115.053 48.5826 115.706 48.6299C116.358 48.6771 116.965 48.9818 117.393 49.4769C118.281 50.5096 118.165 52.0655 117.136 52.9563L108.977 60.0026C108.62 60.3014 108.184 60.4915 107.722 60.5506L107.541 60.578L107.487 60.7533C107.038 62.1663 106.303 63.4719 105.328 64.5888L105.125 64.8299L83.9367 89.3607L83.7449 89.5635C79.6883 93.6463 73.1646 93.8953 68.8086 90.1336C64.4526 86.3718 63.7489 79.8814 67.1974 75.2734Z" fill="#E25AF0"/>
<rect x="96.4077" y="57.3782" width="16.3064" height="5.51765" rx="2.75883" transform="rotate(-40.82 96.4077 57.3782)" fill="white"/>
<path fill-rule="evenodd" clip-rule="evenodd" d="M97.9097 59.4766C98.4882 60.1478 99.3303 60.5339 100.216 60.5341C100.948 60.5347 101.656 60.2722 102.211 59.7944L110.37 52.7425C111.611 51.6328 111.734 49.7327 110.645 48.4724C109.557 47.2121 107.659 47.0568 106.381 48.1235L98.222 55.1753C96.9493 56.2775 96.8096 58.2021 97.9097 59.4766ZM101.828 59.3506C100.797 60.2373 99.2427 60.1221 98.3538 59.093C97.9259 58.5992 97.712 57.9555 97.7593 57.3038C97.8066 56.6521 98.1112 56.046 98.6059 55.6192L106.765 48.5673C106.786 48.5443 106.81 48.5241 106.836 48.507C107.886 47.6783 109.405 47.8378 110.26 48.8666C111.115 49.8955 110.993 51.4183 109.986 52.2987L101.828 59.3506Z" fill="#E25AF0"/>
<path d="M68.902 47.8769L68.6993 47.5263C65.4762 42.4108 58.7821 40.7644 53.554 43.8013C48.3258 46.8381 46.4394 53.4685 49.2861 58.8027L65.8665 87.3553L82.7646 71.7557L68.902 47.8769Z" fill="#75F880"/>
<path fill-rule="evenodd" clip-rule="evenodd" d="M48.864 58.6986L65.7622 87.821L83.0823 71.8324L69.132 47.7674L68.8799 47.9153L69.121 47.7454L68.7594 47.1482C65.4872 41.8383 58.5803 40.1022 53.1863 43.2337C47.7923 46.3652 45.8753 53.2241 48.864 58.6986ZM65.9047 86.895L49.6531 58.9068L49.4997 58.6383C47.0067 53.4764 48.9132 47.2654 53.8728 44.391C58.8325 41.5167 65.1694 42.9504 68.4088 47.6797L68.4909 47.7948L82.3426 71.7009L65.9047 86.895Z" fill="#E25AF0"/>
</svg>
