<svg width="137" height="284" viewBox="0 0 137 284" fill="none" xmlns="http://www.w3.org/2000/svg">
<path d="M72.5914 215.081L85.6021 247.342L63.0803 259.56L49.9936 223.766C47.929 218.128 50.3097 211.828 55.5873 208.965C61.467 205.778 68.8175 207.958 72.0073 213.837C72.2259 214.24 72.4209 214.656 72.5914 215.081Z" fill="white"/>
<path fill-rule="evenodd" clip-rule="evenodd" d="M86.0005 247.484L62.9089 260.011L49.694 223.875C47.4395 217.525 50.6568 210.535 56.9466 208.118C63.2365 205.701 70.3069 208.737 72.8853 214.962L86.0005 247.484ZM63.2748 259.104L85.2268 247.19L72.3206 215.19C69.9406 209.178 63.1623 206.204 57.1269 208.525C51.0914 210.845 48.0509 217.594 50.3116 223.652L63.2748 259.104Z" fill="#E25AF0"/>
<path d="M80.3024 232.66L85.8485 246.112C86.1949 246.956 85.8513 247.925 85.0508 248.363L45.7861 269.66C45.3693 269.885 44.8798 269.936 44.4256 269.801C43.9713 269.665 43.5895 269.355 43.3644 268.938C43.3311 268.881 43.3026 268.814 43.2742 268.753C39.9926 260.576 43.3597 251.238 51.1043 247.038L57.434 243.605C65.9236 243.295 73.835 239.223 79.0203 232.494C79.1835 232.284 79.4454 232.176 79.7088 232.21C79.9723 232.245 80.1981 232.415 80.3024 232.66Z" fill="#75F980"/>
<path d="M15.9423 153.675C15.9998 152.179 16.2553 150.697 16.702 149.268C16.7543 149.111 16.8017 148.95 16.8587 148.793C16.8717 148.745 16.8875 148.697 16.9062 148.651C17.6313 146.588 18.7469 144.684 20.1921 143.043L20.4675 142.796C21.1911 142.019 21.986 141.311 22.8417 140.683L23.2074 140.36L74.9652 94.2148L97.5439 114.049L52.9657 158.019L81.4278 220.737L48.0654 238.833L17.9556 162.331L17.7704 161.856C17.384 161.09 17.0554 160.297 16.7875 159.482C16.7305 159.311 16.6783 159.145 16.6308 158.974L16.4836 158.594C16.0631 156.989 15.8807 155.332 15.9423 153.675Z" fill="white"/>
<path fill-rule="evenodd" clip-rule="evenodd" d="M81.8366 220.888L47.8996 239.293L17.6617 162.469L17.4717 161.994C17.0771 161.21 16.7422 160.397 16.4698 159.563C16.4176 159.406 16.3606 159.235 16.3226 159.088L16.1707 158.708V158.66C15.7449 157.029 15.5609 155.345 15.6246 153.66C15.6846 152.135 15.9448 150.625 16.3986 149.168L16.5553 148.693L16.6028 148.546C17.3421 146.43 18.4891 144.48 19.9789 142.805L20.2353 142.577C20.9583 141.794 21.7532 141.08 22.6095 140.445L74.9657 93.7921L98.0098 114.035L53.3461 158.091L81.8366 220.888ZM48.2271 238.401L81.015 220.613L52.7334 158.186L52.6431 157.986L97.1359 114.101L75.0225 94.6754L23.4451 140.631L23.0652 140.972C22.2092 141.594 21.4143 142.295 20.691 143.067L20.4393 143.285C19.0188 144.895 17.9239 146.766 17.2151 148.793L17.1677 148.931C17.1548 148.971 17.142 149.01 17.1292 149.049C17.09 149.169 17.0515 149.288 17.0157 149.406C16.5764 150.808 16.3257 152.263 16.2702 153.732C16.2077 155.342 16.3804 156.953 16.783 158.513L16.9445 158.931C16.992 159.073 17.0442 159.24 17.0964 159.406C17.3621 160.221 17.6891 161.015 18.0746 161.78L18.2408 162.207L48.2271 238.401Z" fill="#E25AF0"/>
<path d="M127.07 235.628L133.419 269.816L108.922 277.324L103.195 239.645C102.293 233.71 105.875 228.01 111.614 226.249C114.685 225.307 118.005 225.624 120.842 227.13C123.679 228.636 125.802 231.208 126.743 234.279C126.876 234.722 126.986 235.172 127.07 235.628Z" fill="white"/>
<path fill-rule="evenodd" clip-rule="evenodd" d="M133.784 270.049L108.665 277.746L102.886 239.73C101.859 233.024 106.403 226.734 113.092 225.602C119.781 224.47 126.142 228.914 127.379 235.585L133.732 269.774L133.784 270.049ZM109.178 276.929L133.058 269.607L126.776 235.685C125.691 229.26 119.604 224.93 113.179 226.014C106.753 227.099 102.424 233.186 103.508 239.612L109.178 276.929Z" fill="#E25AF0"/>
<path d="M131.04 254.422L133.808 268.705C133.981 269.6 133.451 270.482 132.578 270.747L89.871 283.838C88.9256 284.125 87.9269 283.591 87.6392 282.647C87.6392 282.58 87.606 282.514 87.5917 282.447C85.9976 273.784 91.1495 265.301 99.572 262.722L106.462 260.609C114.843 261.989 123.404 259.566 129.819 253.999C129.969 253.869 130.165 253.804 130.362 253.818C130.56 253.832 130.744 253.925 130.874 254.075C130.959 254.174 131.016 254.294 131.04 254.422Z" fill="#75F980"/>
<path d="M85.6588 172.583C88.1554 180.809 96.5219 185.765 104.936 184.003C113.35 182.241 119.024 174.343 118.01 165.807C117.87 164.626 117.603 163.464 117.212 162.34C114.509 154.517 106.452 149.883 98.3301 151.483C90.2086 153.082 84.5096 160.425 84.975 168.689C85.0468 170.01 85.2764 171.317 85.6588 172.583Z" fill="#E25AF0"/>
<path d="M101.291 91.5794L117.521 162.222L118.337 165.755L135.968 242.499L99.6808 253.619L85.3501 172.659L84.652 168.703L71.2188 92.8947L101.291 91.5794Z" fill="white"/>
<path fill-rule="evenodd" clip-rule="evenodd" d="M136.344 242.731L99.4342 254.047L85.0275 172.749L84.3295 168.784V168.737L70.844 92.6003L101.538 91.2708L136.277 242.446L136.344 242.731ZM99.9325 253.225L135.598 242.304L101.039 91.9355L71.5986 93.2081L84.9654 168.632V168.665V168.703L99.9325 253.225Z" fill="#E25AF0"/>
<path d="M2.69475 107.282L12.5382 105.454L34.5092 78.9343C38.8635 74.0838 46.2709 73.5369 51.2904 77.6953C56.3099 81.8538 57.1503 89.2337 53.1942 94.4142L30.4018 121.898C26.8963 126.117 20.9983 127.463 16.0097 125.182C11.0212 122.902 8.17994 117.561 9.07663 112.15L3.75365 113.137C2.13995 113.438 0.587238 112.376 0.282547 110.763C0.136772 109.988 0.305069 109.187 0.75037 108.535C1.19567 107.884 1.88147 107.437 2.65676 107.292L2.69475 107.282Z" fill="white"/>
<path fill-rule="evenodd" clip-rule="evenodd" d="M23.0328 126.466C22.3871 126.567 21.7346 126.617 21.0812 126.618L21.1144 126.637C20.5888 126.638 20.0636 126.603 19.5427 126.533C16.2641 126.108 13.2887 124.398 11.2715 121.778C9.25431 119.159 8.36074 115.846 8.78751 112.567L3.89664 113.474C2.73881 113.689 1.55445 113.27 0.789684 112.374C0.0249214 111.479 -0.204056 110.243 0.189007 109.133C0.582073 108.023 1.53746 107.207 2.69529 106.993L12.4248 105.188L34.3198 78.7539L34.5287 78.5212C39.0283 73.71 46.4963 73.2345 51.5697 77.4362C56.6432 81.6379 57.5676 89.0636 53.6791 94.3809L30.7062 122.112L30.4926 122.344C28.568 124.553 25.9267 126.012 23.0328 126.466ZM30.2122 121.727L30.4258 121.494L52.8052 94.5092L52.9904 94.267C56.8905 89.2234 56.0894 81.9958 51.1795 77.9287C46.2695 73.8616 39.0191 74.4199 34.7896 79.1907L34.6852 79.3L12.8424 105.692L12.7665 105.782L2.79477 107.629C1.7941 107.725 0.932755 108.376 0.567562 109.313C0.20237 110.25 0.395535 111.312 1.06704 112.06C1.73854 112.808 2.77399 113.115 3.74445 112.852L9.51379 111.784L9.44256 112.23C8.55617 117.505 11.3215 122.718 16.186 124.942C21.0504 127.167 26.8023 125.848 30.2122 121.727Z" fill="#E25AF0"/>
<path d="M51.9032 50.439C51.9412 50.3725 51.9744 50.3108 52.0172 50.2491L52.0741 50.1541L52.2498 49.8645C55.9003 44.4753 63.151 42.9236 68.6874 46.3465C74.2238 49.7695 76.076 56.9494 72.8865 62.6235L54.1207 92.9754L36.0435 76.5174L51.9032 50.439Z" fill="white"/>
<path fill-rule="evenodd" clip-rule="evenodd" d="M73.3467 62.5333L54.2106 93.4788L35.6775 76.6124L51.6464 50.2966L51.6892 50.2206L51.7604 50.1067L52.1735 49.4561C55.9675 44.0675 63.3025 42.567 68.9078 46.0329C74.5131 49.4988 76.4484 56.7313 73.323 62.5333H73.3467ZM54.0732 92.5006L72.4781 62.7374L72.6253 62.4715C75.7694 56.9418 73.9751 49.9156 68.5645 46.5706C63.154 43.2256 56.0666 44.7608 52.5252 50.0449L52.2831 50.4105L52.2261 50.5102L36.4756 76.4699L54.0732 92.5006Z" fill="#E25AF0"/>
<path d="M51.8406 58.7393V58.6206L51.8833 54.5844C51.9097 51.8956 53.0031 49.3275 54.923 47.4449C56.843 45.5624 59.4322 44.5197 62.1209 44.5462L102.986 44.9594C105.676 44.9857 108.245 46.0796 110.129 48.0004C112.012 49.9213 113.055 52.5117 113.029 55.2017L112.986 59.2379C112.97 60.8815 112.555 62.4965 111.775 63.9436L103.907 102.98L65.1789 102.477L53.5548 64.3662C52.4372 62.7024 51.8405 60.7435 51.8406 58.7393Z" fill="#E25AF0"/>
<path d="M87.3975 38.1644L76.1864 36.6164L74.9898 45.2918C74.7843 46.7779 75.1776 48.2847 76.0833 49.4807C76.989 50.6767 78.3328 51.4639 79.819 51.6689C81.3058 51.8744 82.8133 51.4804 84.0094 50.5737C85.2056 49.667 85.9922 48.322 86.1961 46.835L87.3975 38.1644Z" fill="white"/>
<path fill-rule="evenodd" clip-rule="evenodd" d="M86.5088 46.8825C86.0974 49.8337 83.5769 52.0323 80.5971 52.0393C78.8702 52.0388 77.2279 51.2916 76.0929 49.9901C74.9579 48.6886 74.4412 46.9599 74.6758 45.249L75.9151 36.2603L87.7529 37.8937L86.5088 46.8825ZM85.8824 46.7923L87.0363 38.435L76.4568 36.9725L75.303 45.3345C74.9816 47.2533 75.7287 49.195 77.2534 50.4035C78.778 51.6119 80.8391 51.8959 82.6338 51.1449C84.4285 50.3938 85.6729 48.7264 85.8824 46.7923Z" fill="#E25AF0"/>
<path d="M85.5164 10.3813C82.3138 9.93916 79.0668 10.7874 76.4896 12.7394C73.9125 14.6914 72.2164 17.5873 71.7745 20.7899L70.7726 28.0455C70.3304 31.248 71.1786 34.4951 73.1306 37.0723C75.0826 39.6494 77.9785 41.3455 81.1811 41.7874C84.3839 42.2309 87.6316 41.3832 90.2091 39.4309C92.7865 37.4787 94.4823 34.582 94.923 31.3789L95.925 24.1233C96.3671 20.9207 95.5189 17.6736 93.5669 15.0965C91.6149 12.5193 88.719 10.8232 85.5164 10.3813Z" fill="white"/>
<path fill-rule="evenodd" clip-rule="evenodd" d="M95.2225 31.4311C94.371 37.603 89.1069 42.2071 82.8766 42.229C82.2921 42.2304 81.7082 42.1908 81.1292 42.1103C74.2918 41.1582 69.5149 34.8519 70.45 28.0122L71.4519 20.7566V20.7092C72.0383 16.2549 74.9686 12.4574 79.1285 10.7606C83.2885 9.06381 88.0389 9.72852 91.5733 12.5019C95.1078 15.2754 96.8832 19.7314 96.2244 24.1755L95.2225 31.4311ZM73.382 36.8908C75.2834 39.4013 78.1043 41.0534 81.2241 41.4835C84.3443 41.9162 87.5087 41.091 90.0202 39.1895C92.5318 37.288 94.1846 34.4663 94.6146 31.3456L95.6118 24.09C96.1911 19.8879 94.4847 15.696 91.1352 13.0932C87.7857 10.4904 83.3021 9.87227 79.3734 11.4716C75.4446 13.0709 72.6674 16.6448 72.0881 20.8469L71.0862 28.0977C70.6548 31.2172 71.4807 34.3803 73.382 36.8908Z" fill="#E25AF0"/>
<path d="M71.0479 4.93014C71.8399 2.98552 73.372 1.43521 75.3071 0.620368C77.2422 -0.194472 79.4218 -0.207075 81.3663 0.585333L92.2876 5.03461C95.5891 6.37806 97.5854 9.76229 97.1643 13.3016L97.6391 13.52C102.948 15.8505 105.364 22.0416 103.038 27.3522L100.545 33.0503C98.8454 36.926 94.326 38.6903 90.45 36.9915C87.8496 35.8471 86.6663 32.8136 87.8051 30.2108L89.3056 24.4414L87.7007 24.261C86.6705 24.1464 85.728 23.6273 85.0806 22.8178C84.4332 22.0083 84.1339 20.9748 84.2486 19.9447L84.3625 18.9285L75.3785 15.2722C73.4339 14.4803 71.8836 12.9482 71.0687 11.013C70.2539 9.07791 70.2413 6.89831 71.0337 4.95388L71.0479 4.93014Z" fill="#E25AF0"/>
<path d="M85.4216 24.7786L84.9467 28.1025C84.8589 28.7336 85.0258 29.3737 85.4107 29.8815C85.7956 30.3893 86.3667 30.7231 86.9981 30.8091C87.6287 30.9022 88.2704 30.7379 88.7786 30.3529C89.2868 29.968 89.6188 29.3948 89.6999 28.7625L90.1748 25.4386C90.2627 24.8082 90.0964 24.1688 89.7125 23.6611C89.3286 23.1534 88.7587 22.8192 88.1282 22.732C87.4978 22.6441 86.8583 22.8104 86.3507 23.1943C85.843 23.5781 85.5087 24.1481 85.4216 24.7786Z" fill="white"/>
<path fill-rule="evenodd" clip-rule="evenodd" d="M90.0279 28.8052C89.8428 30.1475 88.6953 31.147 87.3403 31.1462V31.1225C87.2201 31.1295 87.0996 31.1295 86.9794 31.1225C85.4915 30.9186 84.4501 29.5478 84.6527 28.0597L85.1275 24.7358C85.3334 23.2515 86.7036 22.2151 88.1879 22.421C89.6722 22.6268 90.7086 23.997 90.5028 25.4813L90.0279 28.8052ZM88.1236 30.362C88.8121 30.0821 89.299 29.456 89.4008 28.7198H89.4055L89.8804 25.3959C89.9873 24.2833 89.1977 23.2844 88.0905 23.1316C86.9833 22.9787 85.9526 23.7262 85.754 24.8261L85.2791 28.15C85.1774 28.8862 85.4761 29.6209 86.0628 30.0771C86.6495 30.5334 87.4351 30.642 88.1236 30.362Z" fill="#E25AF0"/>
<path d="M25.0117 127.71L25.4296 127.487C26.0707 127.142 26.5484 126.556 26.7577 125.859C26.967 125.162 26.8906 124.41 26.5455 123.769L22.1105 115.526C21.7654 114.885 21.1799 114.407 20.4826 114.198C19.7853 113.988 19.0334 114.065 18.3924 114.41L17.9746 114.633C16.6418 115.353 16.1428 117.016 16.8587 118.351L21.2985 126.594C21.6426 127.235 22.2273 127.713 22.9238 127.922C23.6203 128.131 24.3715 128.055 25.0117 127.71Z" fill="white"/>
<path fill-rule="evenodd" clip-rule="evenodd" d="M25.135 127.99C24.6967 128.226 24.2079 128.351 23.7104 128.356C22.5745 128.363 21.5276 127.742 20.9896 126.741L16.5546 118.498C15.7548 117.01 16.3115 115.155 17.7986 114.353L18.2165 114.13C18.9312 113.746 19.769 113.662 20.5455 113.896C21.322 114.131 21.9737 114.664 22.3571 115.379L26.7969 123.622C27.5939 125.11 27.0378 126.963 25.5528 127.767L25.135 127.99ZM21.8209 115.678C21.3987 114.89 20.5774 114.399 19.6841 114.4C19.2829 114.4 18.888 114.499 18.535 114.69L18.1171 114.913C16.9387 115.552 16.4973 117.022 17.1294 118.204L21.5645 126.447C22.2029 127.625 23.6733 128.067 24.8551 127.435L25.273 127.207C26.4508 126.57 26.8923 125.101 26.2606 123.921L21.8209 115.678Z" fill="#E25AF0"/>
<path d="M30.3441 123.565L31.0089 123.137C32.2111 122.365 32.5598 120.764 31.7876 119.562L27.514 112.914C27.1439 112.336 26.5591 111.929 25.8886 111.782C25.218 111.635 24.5165 111.76 23.9385 112.131L23.2737 112.558C22.0714 113.33 21.7228 114.931 22.495 116.133L26.7685 122.781C27.1387 123.359 27.7234 123.767 28.394 123.914C29.0646 124.061 29.7661 123.935 30.3441 123.565Z" fill="white"/>
<path fill-rule="evenodd" clip-rule="evenodd" d="M30.5155 123.816C30.0513 124.122 29.5088 124.287 28.9533 124.291C28.7431 124.285 28.5344 124.255 28.3312 124.201C27.5769 124.042 26.9191 123.585 26.5078 122.933L22.2342 116.285C21.818 115.638 21.6768 114.851 21.8416 114.099C22.0064 113.347 22.4638 112.692 23.1127 112.278L23.7727 111.85C25.1235 110.986 26.9192 111.379 27.7851 112.729L32.0587 119.377C32.9204 120.728 32.5277 122.521 31.1803 123.389L30.5155 123.816ZM25.8284 112.112C25.6728 112.075 25.5135 112.056 25.3536 112.055H25.3346C24.9016 112.055 24.4779 112.18 24.1143 112.415L23.4495 112.843C22.3954 113.522 22.0896 114.926 22.7657 115.982L27.0393 122.629C27.7167 123.685 29.1209 123.993 30.178 123.318L30.838 122.891C31.8914 122.212 32.199 120.809 31.5265 119.752L27.253 113.104C26.9311 112.595 26.4175 112.237 25.8284 112.112Z" fill="#E25AF0"/>
<path d="M13.7536 117.002L13.1458 117.23C11.7739 117.749 11.0813 119.281 11.5979 120.654L14.6511 128.76C15.1721 130.13 16.702 130.821 18.0747 130.308L18.6825 130.075C20.0538 129.558 20.7468 128.028 20.2305 126.656L17.1773 118.55C16.6583 117.179 15.1265 116.486 13.7536 117.002Z" fill="white"/>
<path fill-rule="evenodd" clip-rule="evenodd" d="M18.1832 130.602C17.849 130.727 17.4953 130.791 17.1386 130.792C15.9024 130.793 14.7944 130.029 14.356 128.874L11.3028 120.768C11.024 120.031 11.0495 119.214 11.3737 118.496C11.6979 117.778 12.2942 117.219 13.0312 116.941L13.6437 116.713C14.381 116.434 15.1989 116.46 15.9168 116.786C16.6348 117.111 17.194 117.708 17.471 118.446L20.5242 126.547C20.803 127.283 20.7775 128.101 20.4533 128.819C20.1291 129.537 19.5328 130.096 18.7958 130.374L18.1832 130.602ZM16.8778 118.664C16.528 117.758 15.6607 117.156 14.6888 117.145C14.4082 117.148 14.1303 117.199 13.8673 117.297L13.2548 117.53C12.6747 117.748 12.2053 118.188 11.9497 118.752C11.6941 119.317 11.6733 119.96 11.892 120.54L14.9499 128.646C15.1683 129.226 15.6083 129.695 16.1729 129.951C16.7375 130.206 17.3805 130.227 17.9604 130.008L18.573 129.78C19.7795 129.322 20.3886 127.974 19.9358 126.765L16.8778 118.664Z" fill="#E25AF0"/>
<path d="M28.1319 81.9916H28.2506L28.2791 81.8349C26.8301 81.3394 25.9919 79.8269 26.34 78.3356C26.688 76.8443 28.109 75.859 29.6277 76.0561L30.9762 76.2365C31.1662 76.0133 31.3656 75.7996 31.5745 75.5907L29.0769 74.5318C27.6225 73.8534 26.966 72.1456 27.5912 70.6676C28.2164 69.1896 29.8991 68.4715 31.3988 69.0426L38.607 72.0911C39.6222 71.9629 40.6496 71.9629 41.6649 72.0911L76.7083 74.7835C83.1828 75.5395 87.905 81.273 87.4063 87.7723C86.9075 94.2717 81.3657 99.2175 74.8517 98.9767L39.267 96.2464C36.8951 96.0667 34.6289 95.1912 32.7521 93.7297L29.9031 94.2045C28.2863 94.5048 26.7323 93.4376 26.432 91.8208C26.1317 90.2041 27.1989 88.65 28.8157 88.3497C28.7682 88.2263 28.7207 88.0981 28.678 87.9699H28.5166C27.7278 88.0205 26.9514 87.755 26.3588 87.232C25.7663 86.7089 25.4065 85.9715 25.3589 85.1825C25.2532 83.5397 26.4987 82.122 28.1414 82.0153L28.1319 81.9916Z" fill="white"/>
<path fill-rule="evenodd" clip-rule="evenodd" d="M87.7258 87.8113C87.2238 94.3647 81.7177 99.4012 75.1457 99.3186L39.2761 96.593L38.9674 96.5503C36.6896 96.3242 34.5195 95.4693 32.6995 94.0811L29.9786 94.5179C28.1847 94.7893 26.5046 93.572 26.2036 91.7828C26.4263 91.5792 26.6327 91.3585 26.8209 91.1228C26.8436 91.0943 26.8659 91.0656 26.888 91.0368C26.9323 90.291 27.2899 89.603 27.8569 89.1369C28.0032 88.6465 28.0858 88.1374 28.101 87.622C26.802 87.524 25.7378 86.4848 25.6458 85.1469C25.595 84.4076 25.8507 83.7181 26.3045 83.2027C26.1669 83.0696 26.0224 82.9427 25.8713 82.8226C26.6731 82.4697 27.3744 81.9701 27.9525 81.3659C26.9128 80.8047 26.3486 79.6039 26.6257 78.4169C26.9387 77.0765 28.2212 76.1952 29.5846 76.3837L29.7459 76.4054C29.7311 76.1946 29.7059 75.983 29.67 75.7711L30.8476 75.9326C30.9046 75.8661 30.9663 75.7949 31.0328 75.7284L28.953 74.85C27.3433 74.0985 26.6173 72.2076 27.3104 70.572C28.0036 68.9363 29.8671 68.1428 31.5266 68.7767L38.6493 71.7967C39.6584 71.6709 40.6792 71.6709 41.6883 71.7967L76.7316 74.4843L77.045 74.5223C83.553 75.4416 88.2278 81.2579 87.7258 87.8113ZM29.7459 76.4054L31.1041 76.5879L31.2133 76.4549C31.3938 76.2507 31.5884 76.0371 31.8021 75.8234L32.1298 75.491L29.2 74.2517C28.3212 73.8852 27.7047 73.0778 27.5827 72.1336C27.4606 71.1893 27.8516 70.2517 28.6083 69.6739C29.365 69.0961 30.3725 68.9659 31.2513 69.3323H31.2798L38.5639 72.4188H38.6493C39.6395 72.2953 40.6412 72.2953 41.6314 72.4188L76.5228 75.0636H76.67C83.0202 75.7499 87.6774 81.3554 87.1886 87.7238C86.6997 94.0922 81.2414 98.9211 74.8608 98.6301H74.5569L39.599 95.9472L39.2904 95.9092C36.9787 95.7334 34.7703 94.8794 32.9417 93.4543L32.8325 93.3688L29.841 93.8437C28.4546 93.9973 27.1844 93.0554 26.9288 91.684C26.8882 91.4661 26.8754 91.2491 26.888 91.0368C27.3274 90.4625 27.6536 89.8179 27.8569 89.1369C28.1444 88.9005 28.4859 88.7212 28.8676 88.6204L29.2237 88.5444L29.1003 88.2025C29.0935 88.184 29.0868 88.1659 29.0803 88.1482C29.037 88.0303 29.0003 87.9306 28.9673 87.8274L28.8913 87.5947L28.4877 87.6232C28.357 87.6322 28.2279 87.6316 28.101 87.622C28.1093 87.3412 28.0976 87.0585 28.0653 86.776C27.9091 85.4112 27.2832 84.1498 26.3045 83.2027C26.7522 82.6942 27.3928 82.3551 28.1221 82.305H28.1553H28.5162L28.6397 81.6355L28.3785 81.55C28.2291 81.5002 28.0868 81.4384 27.9525 81.3659C29.2027 80.0595 29.8769 78.2641 29.7459 76.4054Z" fill="#E25AF0"/>
<path d="M92.3158 48.6387C96.8353 43.9422 104.257 43.6519 109.129 47.981C114.002 52.3101 114.587 59.714 110.455 64.7548L86.7507 91.4362L69.0058 74.2232L92.3158 48.6387Z" fill="white"/>
<path fill-rule="evenodd" clip-rule="evenodd" d="M110.911 64.7643L86.7796 91.9253L68.6026 74.2944L92.1026 48.4677L92.3257 48.2398C96.9974 43.6155 104.458 43.4158 109.37 47.7835C114.283 52.1512 114.957 59.5837 110.911 64.7643ZM86.7791 91.0089L110.046 64.8118L110.056 64.8071L110.251 64.5744C114.337 59.6699 113.793 52.4068 109.02 48.1666C104.248 43.9263 96.9711 44.2404 92.5817 48.8761L92.368 49.0993L69.4949 74.2374L86.7791 91.0089Z" fill="#E25AF0"/>
</svg>
