<svg width="20" height="29" viewBox="0 0 20 29" fill="none" xmlns="http://www.w3.org/2000/svg">
<g id="Scroll Down">
<path id="Path" d="M10.8968 28.5873L19.4989 19.9628C20.0238 19.4366 20.0238 18.5832 19.4989 18.057C18.974 17.5307 18.123 17.5307 17.5981 18.057L11.2905 24.381L11.2905 1.3477C11.2905 0.603505 10.6886 0.000111524 9.94637 0.000111524C9.20422 0.000111524 8.60228 0.603505 8.60228 1.3477L8.60228 24.381L2.29465 18.0572C1.7697 17.5309 0.918734 17.5309 0.393787 18.0572C0.131529 18.3202 0.000131607 18.6652 0.000131607 19.0101C0.000131607 19.355 0.131529 19.6998 0.393787 19.963L8.99594 28.5873C9.52088 29.1136 10.3719 29.1136 10.8968 28.5873Z" fill="url(#paint0_linear_20_183)"/>
</g>
<defs>
<linearGradient id="paint0_linear_20_183" x1="10" y1="0" x2="10" y2="29" gradientUnits="userSpaceOnUse">
<stop stop-color="#75F880"/>
<stop offset="1" stop-color="#E25AF0"/>
</linearGradient>
</defs>
</svg>
